<?xml version="1.0" encoding="UTF-8"?>
<svg version="1.1" viewBox="0 0 2048 1172" width="800" height="458" {...Astro.props}>
<path transform="translate(0)" d="m0 0h2048v1170h-2048z" fill="#FEFEFE"/>
<path transform="translate(1365)" d="m0 0h683v1170h-683z" fill="#CC1123"/>
<path transform="translate(0)" d="m0 0h683v1170h-683z" fill="#006948"/>
<path transform="translate(1030,353)" d="m0 0h21l25 5 15 5 21 10 14 9 16 1-4 7v3l14 10 11 10 9 11 10 14 13 24 9 19 9 10 2 1-1 4h-5l4 18v29l-4 14-2 15-3 36-3 11-1 7h-4l-1-1v-8l1-7v-19l-3-19-1-29-1-9-4-6v12l1 20v45l-2 10-3 1-1-7-1-26-5-13-4-30-3-10 1 15 2 23v38h-2l-1-3-1-18-7-16-4-17-2-16-3-5-1-1 1 11 4 16 2 9v11l-3-1-7-19-6-18-6-9 1 6 5 17 4 13v2l-4-2-8-14-6-16-6-7-5-3-4-1 5 11 7 16 3 6-5-1-8-10-10-14-4-3-10-5-7-8-2 4-1 4 5 11 2 8 1 11 8 7 14 10 13 10 16 12 17 13 16 12 4 5-7 6-7 2h-8l-7 4-10 2-6-2-3 3h-8l-5-2v-2h-3v2h-10l-16-17-2-5v3 10l-5-1v-2h-2l3 9 2 3-4-2-5-3-3-3-1 10-4-2-7-8-4 5-2 1-5-5-7-13-12-12-5-6-1-1-1 11-2 5h-4l-4-6-9 2-11 3-7-1-1-4 1-2-17-4-3-3 10 1 6 1-3-5h10l-11-6-1-4 15 2 6 2 4-1-1-12-4 1v-6l1-5-7-7 1 11-4-2-7-8-5-10-1-13-2-4-6 1-2-6-4-15-2-6v-9l5-12 5-8h-4l1-5 10-16-3-3 5-9-1-5-2-6-5-2-10-2-13 1-7-2 5-4 8-9 8-4h2v-2l-5 1-5 2 5-5 8-7 1-2 1-22h3l3 9v3h2l2-6 2-5 4 3 2 9 13 1 13 4h8l-1 4 6 4 7 10 3 3-2-11-4-7-8-6-7-3-13-4-3-3-1-9 4-8 4-3 5-2 9-1 5-5z" fill="#4E2F1A"/>
<path transform="translate(839,554)" d="m0 0 4 1 3 11 4 4v2h2l1-3 7 1 2 6-3 4 5 4 4 9v3h11v-3l4 2 2 5 9 7 6 8h3l1 9 2 7 5-2 3-2v-2l3 1 14 1 2-6-2-2 1-6 5-2 2 2h3l1-11 5-1 3 2-1 5-3 3 1 4 6 1 1 4-3 5-12-3 1 7 1 1 7 1 2 6 7 6 5 5 3-3-1-4-1-3 6 2 8-5-2-4 6-1 3 3v2l11 2 7 2-1-4 4 2 1 4 2 1v-3h2v4l11 6 4-5h8l2 3 1 7 7 4 3 4 2 4 5-2 4-6 8-6h2v2l7-2v2l9-2 5 5 2 3h10l2-4 2-3h5l4 6v8l-5 4h-6l-1 5 10-2 5-5 5-6 3-7 1 3 12-9 2-3h2v3l6 2 4 2 7-8 5-2-2-2 1-6 4-3 5 2 1 3 6-3 2-3 2-6 1-1h6l1 5-5 5-5 4-3 7 6 2 1 4-4 6-6-1-6 8-6 4v9l1 2 4-1-1 3-7 2-9 6-4 3-1 1h5v2l-6 2-5-3-10 3h-12l-11-2 1 5-8-8-9-4-6 1-15 3-12 6-2 3 7-3 6 1 5 6 1 7-3 2v15l-2 3 1 4 3 4v6l-3 4-3 1h-10l-7 2h-48l-10-3-5-1-4 3-7-3-4-5 3-7 1-1v-6l-3-5v-6l3-9-4-3 1-6 3-5 2-1h8l5 2 33 1v-12l1-6-9 5-1 4h-2v-2h-3v2h-2v-3l-2 1-13 1h-3v-2l-12-2-6-2v2l-4 1 2-4-8-7-4-6v-3l-9 4-6 1h-14l-5 4-3-3-1-3-10-3-3-2h-5l-4 1 2-6-3-4-1-4-13-3h-2l-1 3h-2l1-5-6-2-7-4-6-1 2-3-7-10-3-5-2-1v-2h3v-8l1-6-4-2-4-5 1-4 5-2-1-8-4 2-4 4-5-1-3-7 3-4 6 1-2-4-1-6-7-9 2-4z" fill="#0D7F86"/>
<path transform="translate(1030,353)" d="m0 0h21l25 5 15 5 21 10 14 9 16 1-4 7-4 2-9 6-9 2-9-3-11-6-8-3-7-3h-6l-7-5 3 7-3 2h-5v2h10l4 9v5l-6 2h-4v2h11l3 5 1 3v9l-2 1-9-1v2l11 2 1 1v12l-2 4-3 1h-5l6 4-1 6-4 6-9-1 6 4-3 5-6 6-6-2 3 4-1 4-3 4-3-1-9-19-1-8 6-4 4-2 2-4 2-6-4 1v5l-8 7-2-1-3-20-7 2-1 4 6 23 4 9v2h-5l-6-9-1-4-2-20-5-2-2-2-2 7-4 10-1 13-3 9-8 9-4 3 6 1-1 7-3 7 2-2h3l4 15 3 11-1 3-11-11v-2h-2l-1 10-1 2 4 2 4 8 7 9 4 2 1-5 3 1 5 8 4 2-1-7-8-11-3-5 1-2 12 16 8 8 5 4-4-10-5-8 1-2 7 4 6 4 1 3v12l-4 1-9-5-3-2 1 13-5 2-9-3-3-5-8-10-4-4-4-5v-2h-2l-3-5v-3l-5 1-7-4 1 5 3 3 2 6h2l6 7v2l4 2 7 7v3l-5-2-18-18-10-15-1-1-2 2-6 1-2-6-4-15-2-6v-9l5-12 5-8h-4l1-5 10-16-3-3 5-9-1-5-2-6-5-2-10-2-13 1-7-2 5-4 8-9 8-4h2v-2l-5 1-5 2 5-5 8-7 1-2 1-22h3l3 9v3h2l2-6 2-5 4 3 2 9 13 1 13 4h8l-1 4 6 4 7 10 3 3-2-11-4-7-8-6-7-3-13-4-3-3-1-9 4-8 4-3 5-2 9-1 5-5z" fill="#905228"/>
<path transform="translate(1135,391)" d="m0 0 9 6 10 8 9 8 9 11 10 14 13 24 9 19 9 10 2 1-1 4h-5l4 18v29l-4 14-2 15-3 36-3 11-1 7h-4l-1-1v-8l1-7v-19l-3-19-1-29-1-9-4-6v12l1 20v45l-2 10-3 1-1-7-1-26-5-13-4-30-3-10 1 15 2 23v38h-2l-1-3-1-18-7-16-4-17-2-16-3-5-1-1 1 11 4 16 2 9v11l-3-1-7-19-6-18-6-9 1 6 5 17 4 13v2l-4-2-8-14-6-16-6-7-5-3-4-1 5 11 7 16 3 6-5-1-8-10-10-14-4-3-10-5-7-8-2 4-5 5-5 2-1 3h-2l-1 9h-4l-5-2 1 4v11l-1 2-4-1-7-5-9-14-4-8 1-2 8 12 8 10-1-8-4-10v-2l6 1-6-12-5-6v-3l5 2 6 8 6 12h3l1-14 2 1 1 5h2l-4-13-1-4 7-3 3-3h2v-2l4 2 1-6 3 1 4 4-5-6 1-4 7-5 5 5 4 6-2-4v-5l5 1 7 6-7-8-9-10 2-4 4-4 10-1v-2l-5-6v-5l2-2h5l5 4 14 10 7 7v2l4 1-2-5-12-13v-2l2-1-6-3-10-9-3-2 1-5 5-5 4 1 10 9 10 12 12 20 4 4 9 3-2-9-8-16-10-14-12-14-13-13v-4l5 2 15 14 6 4 10 5 5 1-6-9-5-5-11-9-10-8 1-4 4-5z" fill="#864A24"/>
<path transform="translate(956,385)" d="m0 0 3 1 1 2v11l3-1 3-6h1v8l-7 8-7 5 5-3h5l-1 3-11 6-8 9-2 2 5 1 15-1 8 2 5 3 4 8-1 5-4 8 3 2-11 17-1 4h4l-2 5-6 12-1 3v9l5 16 2 10 6-1 3 5 1 13 5 10 8 9h1l-1-11 7 6 2 2-2 11 4-1 2 14-8-1-18-4 2 4 11 5-1 2h-9l2 4-17-1v-3h2l-1-4-4 1-5 5-6-2-9 1-6 3h-8v-2l-8 4-4 1h-10l-8-4-4-5-2-5-3-16-6-8-11-9-5-7-1-10 2-11 5-14 3-2h8l5 1-1 9-3 7-1 13-8-1-6 3v4l5-3 4-1h7l10 9 5 4 3 5 4 14 5 5v2l-4 1-1 2-1-1v-8h-3l1 9-3 2-1 4 5-4 6-3 1 1 9-13 7-6 5-5 6-1 9-1-3-3h-27l-8-2-10-8-4-8-2-6v-22l5-1 9 1 2 6v-7l3-1h-4l-2-8v8l-9-1-2-1 2-6 6-8 11-8 13-10 6-7 1-5-4 2-6-1-8-6-3-3-8-1v-7h3v2h2v-3l-5-2-2-4-5-1 1 7-1 4h2v4h-8l-4-4-3-8-1-14-4-8 3-7 10-10 7-4 7-1 4-2 1 1 1 7v11h-2l-2-9-2-1-2 9-4 8-1 4 13-4 5-2-2 5-12 6-4 1-1 5h16l8-7 2-4 2-2 1-4 9-9 5-8 5-12 2 2 2 6 2-1 1-3z" fill="#F0C144"/>
<path transform="translate(1260,552)" d="m0 0 3 1 4 10 1 5 5-4 6 13 1 9-3 8-8 9-12 9-4 5-1 3 10-2 4-3 5 1 1 6-2 2-13 1-7 2-1 2v13l-1 9 9-6 7-2-10 20-9 17-8 7-12 4-8 5-2 5h14l2 1v7l-3 2-4-1-3-3-7-2-5 1-3 3-2 6v5l6-1-4 16-6 8-7 5-11 3-29 3-6 1 6 7 9 2 2 3-1 4-2 2h-5l-6-7-6-4-4 1-10 10-6 4 12 4 1 2-12 4-24 10-4 1h-10l-10-5-17-12-8-3h-15l12 4 12 7 4 5-1 2-4 1-5-3-8-6-12-5 2 5 6 5 13 7 7 7v1h-10l-9-6-10-5-4-1-1 4 4 4 14 5-1 4-2 3-4-1-14-7-4-4-5 4-7 8-5-5 2-5 8-7 8-6 4-7 1-4 1-16h5l3 5 16 2 10 2 11-4 10-9 7-6 11-4h13l7 3v3l-3 3h9l6 1 4-5v-12l-4-2-2-5 3-3h6l2 2v9l2 6 5-4 4-9 2-10 4-6 10-10 8-7 5-8 2 3v8l-1 5 13-8 11-3-2-4-7-10-5-3-1-4 3-3h5l2 3 3 9 6 7 1-1v-9l-2-15-2-8 1-10 6-10 10-8 6-3h2l1 6 9-10 1-5-7-6-7-3-1-5 3-3 5 1 6 8h3l-1-11-4-7-3-5-1-10v-19l-1-3 5 2 7 11v2h2l1-10 4-10z" fill="#9FA467"/>
<path transform="translate(1067,379)" d="m0 0 4 2 4 3 6 1 1-2 3 3 10 3 8 5 11 5 9-1 10-6 2-1-2 5-3 3v3l20 16 3 3v2l4 2 5 7-1 2-6-2-9-4-8-6-7-7-9-7-2-1 2 5 16 16 9 11 10 15 8 16v7l-7-1-6-4-9-16-8-11-11-12-5-4-4 1-4 4v4l15 12 4 2-3 1 9 11 5 5v4l-4-1-7-8-14-10-5-4h-5l-1 1v5l6 8-12 2-5 5 2 4 9 10 4 4v2l-4-2-5-4-3-1 3 9-1 3-7-12-2-1-7 5 1 4 4 5-1 2-4-4v-2l-3 1v5l-5-3v2l-6 5-5 2 4 11v5h-2l-2-5-1 13-4 1-3-4-7-14-5-4-2-1 3 5 7 11 1 5-6-1 6 16v5l-5-5-7-9-5-8-2 1-2-7-5-2-7-5-3 13 1 5 8 12 4 4v2l5 2 2 1 1-3 5 11-1 2-13-12-9-11-3-4 7 11 5 7-1 5-5-2-5-8-2-1v6l-6-3-10-14-2-4-2-1 2-12h2l7 8 2 4h2l-2-10-4-14v-4l-6 3 2-7 3-8h-6l-1-2 8-6 5-6 2-8 1-13 4-10 2-8 8 5 2 9 1 13 6 10 5 1-5-11-6-23 2-5 7-1 3 12 1 8 6-4 2-2v-6l6-1-1 5-4 6-8 6h-2l4 13 7 14 2 1 2-4 1-4-2-4 6 1 7-7 1-3-5-3-1-2 10 1 4-7v-4l-5-3-1-2h9l1-4v-12l-9-2-2-1v-2h11l-2-12-2-4h-7l-4-1v-2l9-2-1-8-2-6h-10v-2l7-2zm69 10 1 2-2-1z" fill="#4E2E19"/>
<path transform="translate(839,554)" d="m0 0 4 1 3 11 4 4v2h2l1-3 7 1 2 6-3 4 5 4 4 9v3h11v-3l4 2 2 5 9 7 6 8h3l1 9 2 7 5-2 3-2v-2l3 1 14 1 2-6-2-2 1-6 5-2 2 2h3l1-11 5-1 3 2-1 5-3 3 1 4 6 1 1 4-3 5-12-3 1 7 1 1 7 1 2 6 7 6 5 5 3-3-1-4-1-3 6 2 8-5-2-4 6-1 3 3v2l11 2 7 2-1-4 4 2 1 4 2 1v-3h2v4l11 6 4-5h8l2 3 1 7 7 4 3 4 2 4 5-2 4-6 8-6h2v2l7-2v2l9-2 5 5 2 3h10v2l-7 2-5-2-3-3-3-1h-8l-9 2v1l3 1-2 1v4l-9 3-11 1-2 6-8-4-2 1-8 25h-2v-12l1-6-9 5-1 4h-2v-2h-3v2h-2v-3l-2 1-13 1h-3v-2l-12-2-6-2v2l-4 1 2-4-8-7-4-6v-3l-9 4-6 1h-14l-5 4-3-3-1-3-10-3-3-2h-5l-4 1 2-6-3-4-1-4-13-3h-2l-1 3h-2l1-5-6-2-7-4-6-1 2-3-7-10-3-5-2-1v-2h3v-8l1-6-4-2-4-5 1-4 5-2-1-8-4 2-4 4-5-1-3-7 3-4 6 1-2-4-1-6-7-9 2-4z" fill="#127F85"/>
<path transform="translate(804,550)" d="m0 0h2l1 6-6 14 10-3-1 6-5 5-6 4-2 4 11-2-1 6-7 7 1 5-2 4v13l5-3 1-4-1-7 6-4 2-2h4l-1 10 1 4-7 2-4 8-1 4v11l2 3h2l3-5 4 2 1 2v9l-1 2h3l1-6 4-5 4 1 4 9-1 15 4-2 3-1-1 10-2 8v7l3 6 5 4-1-8-3-3 1-5 3-2 2-6 4 1 4 9-1 5-3 1-1 2 1 11 4 3v-9h3l1 5 4 2 1 3h2l1-8 2-1 4 4 1 4v16l2-1 3-10 2-1 5 3 4 8 1 15h2l1-3h4l2 13 4 6 5 4 3 1-3-7-5-5 4-9 2-1 8 7v3l-3 4 2 13h8l10 6h2l-5-6 1-4h8l12 12 3 1-5-9v-4h10l7 6 4 6h2l1-4 4 2 5 5 9-1 6-1h14l3 1v-5h6l1 1v16l-2 7-14 9-7 9-9 3 1-5 7-9 9-8 7-4 1-3-10 4-14 9h-6l-2-4 9-6 15-7h2v-3l-12 3-11 5-7 3-10 11-2 1h-7l4-12-3 1-7 8-5 3h-6l-3-2 1-5 5-6 1-2-6 1-9 6h-9l-1-4 5-5 1-3-15 3-2-1h-8l2-5 5-5 5-2-3-3h-12l-1 5-2 2-9-2-5-3 1-4 7-7 4 1 2 2 9 1-4-3-9-4-8 1-4 2h-3l-1-5v-3l-10 5-5-1-7-5-3-5 1-3h15v-2l-16-3-6-4-2-4 1-5 14 3-5-6-9-5v-2l4-2-5-3h-12l-5 3-5-1-5-5-1-3 7-2 4-4 5 6 6 1-7-8-7-6-2-1-12-2-3-2v-3l2-1h9v-2l-17-3-5-4-1-2v-7l13 3-1-2-15-5-4-4v-4l10-1-3-4v-3l4-1v-7l-6-7-4-3h-8l-2-5-3-3v-4h14l2 8 6 4-4-10-15-15-9-8v-5l2-2 5 1 6 3-7-14 3-7 5 1 4 4 1-12 4-5 4 1v2l5-3z" fill="#9FA568"/>
<path transform="translate(1019,512)" d="m0 0 11 7 3 3 1 5h2l6 12 8 11 9 5v-17l5 1 3 1 2-9h2l1-4 5-2h4l5 11 2 8 1 11 8 7 14 10 13 10 16 12 17 13 16 12 4 5h-3-6l-1 4-2 2h-10l-6-5-2-5-5-1-2-6-6-6h-5l-4-6-6-5v-2l-4 1-11-12-6-3-10-8-2-1v5l3 1 5 6 11 9 12 11 11 9 16 12 9 6-3 3-5 2h-7l-5-4v-2l-4-2-10-7 9 11 2 1-1 5-5-1-10-10-8-7-7-8-14-15-1-6 4 2 18 18 6 3-9-12-15-15-2-3-2 4-3 1-1 5h-5l-2-1-2 8-4 1-7-7-4-6-6-16v-3h-2l-3-4 2-1v-12l-2-4-8-4-3-1 3 5v4l-5-2-5-5-7-9-4-6 1-7z" fill="#4F301A"/>
<path transform="translate(1030,353)" d="m0 0h21l25 5 15 5 21 10 14 9 16 1-4 7-4 2-9 6-9 2-9-3-11-6-8-3-7-3h-6l-7-5 3 7-3 2h-5v2h10l4 9v5l-6 2h-4v2h11l3 5 1 3v9l-2 1-9-1v2l11 2 1 1v12l-2 4-3 1h-5l6 4-1 6-4 6-9-1 6 4-3 5-6 6-6-2 3 4-1 4-3 4-3-1-9-19-1-6 10-5 8-9 2-8v-15l-2-12-4-12-3-4-14-4v-1h6l-2-3-3-1v-2l-8-2-11-1 4-2h2v-2l-22-1 1-2 10-1-3-3-5-2v-1h8l2 1v-10l5-5z" fill="#864A24"/>
<path transform="translate(978,407)" d="m0 0h11l8 4 7 7 5 8 3 12v8h4v-8l2-1v9l-4 10-1 13-3 9-8 9-4 3 6 1-1 7-3 7 2-2h3l4 15 3 11-1 3-11-11v-2h-2l-1 10-1 2 4 2 4 8 7 9 4 2 1-5 3 1 5 8 4 2-1-7-8-11-3-5 1-2 12 16 8 8 5 4-4-10-5-8 1-2 7 4 6 4 1 3v12l-4 1-9-5-3-2 1 13-5 2-9-3-3-5-8-10-4-4-4-5v-2h-2l-3-5v-3l-5 1-7-4 1 5 3 3 2 6h2l6 7v2l4 2 7 7v3l-5-2-18-18-10-15-1-1-2 2-6 1-2-6-4-15-2-6v-9l5-12 5-8h-4l1-5 10-16-3-3 6-12h2l5-5h3l-3 7h2l2-5 3-6h1l3 15h3l2-8 1-13 3-1-4-6-5-4-8-4-10-3z" fill="#8E552A"/>
<path transform="translate(979,696)" d="m0 0h8l5 2 33 1 1 14 3 4 3 1h18l2-11 2-5 7-2 6-1 6 5 2 4v5l-3 2v15l-2 3 1 4 3 4v6l-3 4-3 1h-10l-7 2h-48l-10-3-5-1-4 3-7-3-4-5 3-7 1-1v-6l-3-5v-6l3-9-4-3 1-6 3-5z" fill="#894D25"/>
<path transform="translate(1135,391)" d="m0 0 9 6 10 8 9 8 9 11 10 14 13 24 9 19 9 10 2 1-1 4h-5l4 18v29l-4 14-2 15-3 36-3 11-1 7h-4l-1-1v-8l1-7v-19l-3-19-1-29-1-9-3-5v-11l-3-12-7-16-3-5-1-8-4-10-3-10h-2l-8-13-10-13-5-6 14 7 5 1-6-9-5-5-11-9-10-8 1-4 4-5z" fill="#50331D"/>
<path transform="translate(1098,467)" d="m0 0 4 1 5 5 6 7v-5l2-1 8 4-1-4h5l6 10v2h2l-1-9 4 2 6 2-2-10 6 1-1 5 4 2 3 3 1 8 5 2 3 6 1 11-1 5 1 6-4-2-7-15-1-13-9-3-5-3 1 7-2 2-9-1-10-4 1 2 1 11 11 13 7 8 8 8 4 12 1 7 1 5-3 3-2-4-6-16-5-7 1 6 5 17 4 13v2l-4-2-8-14-6-16-6-7-5-3-4-1 5 11 7 16 3 6-5-1-8-10-10-14-4-3-10-5-7-8-2 4-5 5-5 2-1 3h-2l-1 9h-4l-5-2 1 4v11l-1 2-4-1-7-5-9-14-4-8 1-2 8 12 8 10-1-8-4-10v-2l6 1-6-12-5-6v-3l5 2 6 8 6 12h3l1-14 2 1 1 5h2l-4-13-1-4 7-3 3-3h2v-2l4 2 1-6 3 1 4 4-5-6 1-4 7-5 5 5 4 6-2-4v-5l5 1 7 6-7-8-9-10 2-4z" fill="#8F5429"/>
<path transform="translate(1067,379)" d="m0 0 4 2 4 3 6 1 1-2 3 3 10 3 8 5 11 5 9-1 10-6 2-1-2 5-3 3v3l20 16 3 3v2l4 2 5 7-1 2-6-2-9-4-8-6-7-7-9-7-2-1 2 5 16 16 9 11 10 15 8 16v7l-7-1-6-4-9-16-8-11-11-12-5-4-4 1-4 4v4l15 12 4 2-3 1 9 11 5 5v4l-4-1-7-8-14-10-5-4h-5l-1 1v5l6 8-12 2-5 5 2 4 9 10 4 4v2l-4-2-5-4-3-1 3 9-1 3-7-12-2-1-7 5 1 4 4 5-1 2-4-4v-2l-3 1v5l-5-3v2l-6 5-5 2 1 8-2-1-7-15v-2h-2l-1-6 2 1v3h2l4 7v2l10-5 5-6 1-5 6-2 5-5 1-7v-4l7-3 3-5-2-7-1-3 8-1 3-4v-8l-2-4 7-3 1-5-3-7-6-7-4-3-6-1-3 3 2 4 7 6 1 4-5 1 4 6 3 5 1 5-4 6-9 1v15l-3 3-3-1-4-5-3-1v-7l-5-3-1-2h9l1-4v-12l-9-2-2-1v-2h11l-2-12-2-4h-7l-4-1v-2l9-2-1-8-2-6h-10v-2l7-2zm69 10 1 2-2-1z" fill="#4E2E19"/>
<path transform="translate(972,436)" d="m0 0 3 1 3 6-1 5-4 8 3 2-11 17-1 4h4l-2 5-6 12-1 3v9l5 16 2 10 6-1 3 5 1 13 5 10 7 8-1 2-4-4-6-1 3 7 8 6v1l-8 2-3 1-1-3-1-7-7-10-3-11-4-8-7-5h-29l-6-3-5-8v-10l5-9 6-6-9-2v3h-2v-3l-7-3-2-2 3-2 1 3 5 1v-9h4v3h-2v7l7-1 1-4h-5v-2l5-1v-9l4-2 4 1v-7l3-3 4-1 4 2-4 2-4-1-1 8h8v-2l5 2v2h-13v6h-2v-6h-5v9l6-1 2-1 2 1v2l8-7 7-8 4-8v-10l-4-9 17-9 3-5z" fill="#FEFEFE"/>
<path transform="translate(956,385)" d="m0 0 3 1 1 2v11l3-1 3-6h1v8l-7 8-7 5 5-3h5l-1 3-11 6-8 9-2 2 5 1 15-1 8 2 5 4-4 6-10 6-7 3 4 9v10l-3 4-3-5h-3l-11-1 4-2h4l-4-7-7 6-7 1-9-6-4-4-8-1v-7h3v2h2v-3l-5-2-2-4-5-1 1 7-1 4h2v4h-8l-4-4-3-8-1-14-4-8 3-7 10-10 7-4 7-1 4-2 1 1 1 7v11h-2l-2-9-2-1-2 9-4 8-1 4 13-4 5-2-2 5-12 6-4 1-1 5h16l8-7 2-4 2-2 1-4 9-9 5-8 5-12 2 2 2 6 2-1 1-3z" fill="#F1C44B"/>
<path transform="translate(1102,752)" d="m0 0h13l7 3v3l-3 3h9l10 3-6 7-8 6 12 4 1 2-12 4-24 10-4 1h-10l-10-5-17-12-8-3h-15l12 4 12 7 4 5-1 2-4 1-5-3-8-6-12-5 2 5 6 5 13 7 7 7v1h-10l-9-6-10-5-4-1-1 4 4 4 14 5-1 4-2 3-4-1-14-7-4-4-5 4-7 8-5-5 2-5 8-7 8-6 4-7 1-4 1-16h5l3 5 16 2 10 2 11-4 10-9 7-6z" fill="#9FA467"/>
<path transform="translate(979,645)" d="m0 0h9l2 2 7 1 6 3v-3l5 1 2 5 23 11 4-5 4-3 4 2 4 7 5-2 4-6 8-6h2v2l7-2v2l9-2 5 5 2 3h10v2l-7 2-5-2-3-3-3-1h-8l-9 2v1l3 1-2 1v4l-9 3-11 1-2 6-8-4-2 1-8 25h-2v-12l1-6-9 5-1 4h-2v-2h-3v2h-2v-3l-2 1-13 1h-3v-2l-12-2-6-2v2l-4 1 2-4-8-7-4-6 1-8-1-3 2-7 3-1 1 2 7-5z" fill="#107D83"/>
<path transform="translate(1137,483)" d="m0 0 6 3 10 4 1 13 7 15 3 2-2-7 1-9-2-8-2-4-5-2 1-2 9 3 4 7 7 23 7 14v3h2l1 9v34l-1 1-1 27h-1l-1-26-5-13-4-30-3-10 1 15 2 23v38h-2l-1-3-1-18-7-16-4-17-2-16-3-5-1-1 1 11 4 16 2 9v11l-3-1-6-16v-4h2v-6l-1-1-2-10-4-10-13-13-11-14-1-1-1-13 10 3 9 1 1-4z" fill="#854B24"/>
<path transform="translate(839,554)" d="m0 0 4 1 3 11 4 4v2h2l1-3 7 1 2 6-3 4 5 4 4 9v3h11v-3l4 2 2 5 9 7 6 8h3l1 9 2 7 5-2 3-2v-2l4 2 1 2-9 4-6 5-4 9v9l-2-1-1-4-13-3h-2l-1 3h-2l1-5-6-2-7-4-6-1 2-3-7-10-3-5-2-1v-2h3v-8l1-6-4-2-4-5 1-4 5-2-1-8-4 2-4 4-5-1-3-7 3-4 6 1-2-4-1-6-7-9 2-4z" fill="#118086"/>
<path transform="translate(930,757)" d="m0 0h8l12 12 3 1-5-9v-4h10l7 6 4 6h2l1-4 4 2 5 5 9-1 6-1h14l3 1v-5h6l1 1v16l-2 7-14 9-7 9-9 3 1-5 7-9 9-8 7-4 1-3-10 4-14 9h-6l-2-4 9-6 15-7h2v-3l-12 3-11 5-7 3-10 11-2 1h-7l4-12-3 1-7 8-5 3h-6l-3-2 1-5 5-6 1-2-6 1-9 6h-9l-1-4 5-5 1-3-15 3-2-1h-8l2-5 5-5 5-2 1-5 5-2 5 1 8 5h2l-5-6z" fill="#9FA568"/>
<path transform="translate(1196,679)" d="m0 0h5l2 3 3 9 7 8h2v2h14l2 1v7l-3 2-4-1-3-3-7-2-5 1-3 3-2 6v5l6-1-4 16-6 8-7 5-11 3-29 3-6 1 6 7 9 2 2 3-1 4-2 2h-5l-6-7-6-4-8 2-2-2 4-5v-12l-4-2-2-5 3-3h6l2 2v9l2 6 5-4 4-9 2-10 4-6 10-10 8-7 5-8 2 3v8l-1 5 13-8 11-3-2-4-7-10-5-3-1-4z" fill="#9FA568"/>
<path transform="translate(973,531)" d="m0 0h2l9 14 9 10 10 10 5 3-3-5-8-7-6-7v-2h-2l-3-6v-2l-3-1v-5l4 1 3 3 1 4 4 6 9 11 10 8 4 3 3 7 10 12 10 8 6 3-11-15-4-8 1-3 8 10 5 7h5l4 6v3h2v2l5 2v4l-7-1-5-3-1 6-4 1-6-5 3 6v6l-7-6-11-12-1-1-1 11-2 5h-4l-4-6-9 2-11 3-7-1-1-4 1-2-17-4-3-3 10 1 6 1-3-5h10l-11-6-1-4 15 2 6 2 4-1-1-12-4 1v-6l1-5-7-7 1 11-4-2-7-8-5-10-1-13z" fill="#854923"/>
<path transform="translate(947,675)" d="m0 0 6 1 4 5v6l-1 4 6 9 9 6h2l5 5-3 9v6l3 5v6l-3 4-2 4-18-1-2-1-4-9 5-3 1-4-6-4-17-4-13-2-4 6-7 1-5-4-1-2v-6l4-5h8l6 1-1-5-13-9-5-3 2-11 9 3 16 8 14 6 4 1v-5l-6-6v-6l4-5z" fill="#26B8DC"/>
<path transform="translate(824,694)" d="m0 0 5 4 1 2 7 1 2 1v-2l5 2 8 3v-9h3l1 5 4 2 1 3h2l1-8 2-1 4 4 1 4v16l2-1 3-10 2-1 5 3 4 8 1 15h2l1-3h4l2 13 4 6 5 4 3 1-3-7-5-5 4-9 2-1 8 7v3l-3 4 2 13 2 2h-2l-1 3-3-1h-12l-1 5-2 2-9-2-5-3 1-4 7-7 4 1 2 2 9 1-4-3-9-4-8 1-4 2h-3l-1-5v-3l-10 5-5-1-7-5-3-5 1-3h15v-2l-16-3-6-4-2-4 1-5 14 3-5-6-9-5v-2l4-2-5-3h-12l-5 3-5-1-5-5-1-3 7-2z" fill="#9FA467"/>
<path transform="translate(1184,625)" d="m0 0h6l1 5-5 5-5 4-3 7 6 2 1 4-4 6-6-1-6 8-6 4v9l1 2 4-1-1 3-7 2-9 6-4 3-1 1h5v2l-6 2-5-3-10 3h-12l-11-2 1 5-8-8-9-4 2-6 6-5 1 2 6 2 2-2h3l-1 4h3l2-4 9-4 6-7v-6l4-1 1 2 5-6 5-3 3-3 4 2 7-8 5-2-2-2 1-6 4-3 5 2 1 3 6-3 2-3 2-6z" fill="#137F83"/>
<path transform="translate(978,407)" d="m0 0h11l8 4 7 7 5 8 3 12v8h4v-8l2-1v9l-4 10-1 13-3 9-8 9-4 3 6 1-1 7-3 7 2-2h3l4 15 3 11-1 3-5-5-9-10-2-8-1-6v-11l1-5-2-3v-5l-8 6-4 2-6-1-1-7-6 1-4-1 1-5 10-16-3-3 6-12h2l5-5h3l-3 7h2l2-5 3-6h1l3 15h3l2-8 1-13 3-1-4-6-5-4-8-4-10-3z" fill="#D09B67"/>
<path transform="translate(1009,361)" d="m0 0h9v9h-9l7 3v2l-10 2 18 1 3 1v2l-2 1 11 2 4 2v2l4 1 2 5 8 3 4 6 4 14 1 8v15l-3 9-7 8-8 5h-3v-2l6-4 4-2 2-4 2-6-4 1v5l-8 7-2-1-3-18v-4h2l-5-9-4-8h2l-2-11-4-7-8-6-7-3-13-4-3-3-1-9 4-8 4-3z" fill="#905429"/>
<path transform="translate(940,458)" d="m0 0 3 3 2 5-4 1 7 1h3l3 3-1 7-11 12-3 3h-2v-2l-3 1h-7v-9h5v6h2v-6h13v-2l-5-2v2h-8l1-8 7-1-4-1-5 3-1 7h-6l-2 10-5 1v2h5l-1 5h-7v-7h2l-1-3h-2v9l-2 1-4-2-2-2v2l8 4-1 3h2v-3l10 1-6 7-5 9v10l5 8 5 5 11 12 2 4-9 1h-11l-8-2-10-8-4-8-2-6v-22l5-1 9 1 2 6v-7l3-1h-4l-2-8v8l-9-1-2-1 2-6 6-8 11-8 13-10 6-7 3-7z" fill="#91824A"/>
<path transform="translate(1260,552)" d="m0 0 3 1 4 10 1 5 5-4 6 13 1 9-3 8-8 9-12 9-4 5-1 3 10-2 4-3 5 1 1 6-2 2-13 1-7 2-1 2v13l-5-4 2-7-2-1 1-5-7-6-7-3-1-5 3-3 5 1 6 8h3l-1-11-4-7-3-5-1-10v-19l-1-3 5 2 7 11v2h2l1-10 4-10z" fill="#9FA568"/>
<path transform="translate(968,377)" d="m0 0 2 1 3 9v3h2l2-6 3-3v14l-6 4 6-2-3 9v1l1 3 13 3 9 6 5 6v2l-2 1-1 13-3 9-4-1-3-14-5 10-3 1 2-6v-2l-3 3h-2l-1 3-3-1-3-6v-2l-5-2-10-2-13 1-7-2 5-4 8-9 8-4h2v-2l-5 1-5 2 5-5 8-7 1-2 1-22z" fill="#8F5429"/>
<path transform="translate(1019,450)" d="m0 0h2v10l-1 11 3 5 3-5 2-2-1 6-4 6-5 3v15l1 2h4l4 10 6 5 4 2 5 12 4 4 2 4v-3l1-3 4 11v5l-5-5-7-9-5-8-2 1-2-7-5-2-7-5-3 13 1 5 8 12 4 4v2l5 2 2 1 1-3 5 11-1 2-13-12-9-11-3-4 7 11 5 7-1 5-5-2-5-8-2-1v6l-6-3-10-14-2-4-2-1 2-12h2l7 8 2 4h2l-2-10-4-14v-4l-6 3 2-7 3-8h-6l-1-2 8-6 5-6 2-8 1-13 5-5z" fill="#925529"/>
<path transform="translate(1135,391)" d="m0 0 9 6 10 8 9 8 9 11 10 14 13 24 9 19 6 8 1 6h-10l-16-5-7-4 1-2 8 1-2-11-9-20v-2h-2l-5-9-7-10-7-9-5-5-11-9-10-8 1-4 4-5z" fill="#8E5429"/>
<path transform="translate(979,696)" d="m0 0h8l5 2v2l5 2 7 11 4 10 5 14 6 11v2l-20-1-6-2-2-6-8-1 5 1 3 1v5l-3 1-2 4-2 1-7-3-4-5 3-7 1-1v-6l-3-5v-6l3-9-4-3 1-6 3-5z" fill="#EBA44B"/>
<path transform="translate(1067,379)" d="m0 0 4 2 4 3 6 1 1-2 3 3 10 3 3 5-1 1v5l3 5v2h-6l-3 3 2 4 7 6 1 4-5 1 4 6 3 5 1 5-4 6-9 1v15l-3 3-3-1-4-5-3-1v-7l-5-3-1-2h9l1-4v-12l-9-2-2-1v-2h11l-2-12-2-4h-7l-4-1v-2l9-2-1-8-2-6h-10v-2l7-2z" fill="#30241E"/>
<path transform="translate(1030,353)" d="m0 0h21l25 5 15 5 21 10 14 9 16 1-4 7-4 2-9 6-9 2-9-3-11-6-3-2-4-10-6-7-5-1-4-2-7-5v-2l-11-3-5-2v1h-23l2-2z" fill="#8F562A"/>
<path transform="translate(1063,699)" d="m0 0 6 1 5 6 1 7-3 2v15l-2 3 1 4 3 4v6l-3 4-3 1h-8l-2-2 1-7 4-2 2 1v3h2l-2-4h-6l-7 9h-7l-11-22-2-8h19l2-12 2-3h2v-2l-2-1 6-2z" fill="#EDA44B"/>
<path transform="translate(1070,628)" d="m0 0 6 5 5 3 7 3 8 5 8 1 2 3v4l2 1h-3l-2 4-4 4h-8l-5-7-5-1-6 1v-2l-3 2h-4v-2l-9 6-5 7-6 2-4-8-8-5-2-9-4-2 5-3 3-2h6l6 1 8-4 5-2 7 6z" fill="#F2C443"/>
<path transform="translate(875,513)" d="m0 0h8l5 1-1 9-3 7-1 13-8-1-6 3v4l5-3 4-1h7l10 9 5 4 3 5 4 14 5 5v2l-4 1-1 2-1-1v-8h-3l1 9-3 2-2 3v-4l-4 1-3-1 1-4 7 1v-2l-5-1-6-2-2-8-5-6-11-9-5-7-1-10 2-11 5-14z" fill="#AAAB6B"/>
<path transform="translate(1113,707)" d="m0 0h5l-2 9-20 8 1 4 4 1 6-4 7 1 4 6-1 6-4 4-5 1-6-3-8 1-15 5-6 3v-8l-4-5 1-4 1-2v-15l2-2 22-2z" fill="#25B7DA"/>
<path transform="translate(983,489)" d="m0 0h2l-1 5-5 8 4-2 1 2-2 10v6l1-6h2l5 17 1 2 3 1 1-7h1v6l4 2 4 8 7 9 4 2 1-5 3 1 5 8 4 2-1-7-8-11-3-5 1-2 12 16 8 8 5 4-4-10-5-8 1-2 7 4 6 4 1 3v12l-4 1-9-5-3-2 1 13-5 2-9-3-3-5-8-10-4-4-4-5v-2h-2l-3-5v-3l-5 1-9-8-5-8-4-12v-13l3-6h7z" fill="#874A24"/>
<path transform="translate(992,561)" d="m0 0 4 2 5 6 7 6 8 12 5 8 2 2-1 12-2 5h-4l-4-6-9 2-11 3-7-1-1-4 1-2-17-4-3-3 10 1 6 1-3-5h10l-11-6-1-4 15 2 6 2 4-1-1-12-4 1v-6l1-5z" fill="#8D5328"/>
<path transform="translate(911,397)" d="m0 0 2 1 1 7v11h-2l-2-9-2-1-2 9-4 8-1 4 13-4 5-2-2 5-12 6-4 1-1 5h15l-1 4-1 9 1 4h-8v-7h3v2h2v-3l-5-2-2-4-5-1 1 7-1 4h2v4h-8l-4-4-3-8-1-14-4-8 3-7 10-10 7-4 7-1z" fill="#AEAE6E"/>
<path transform="translate(1088,578)" d="m0 0 8 6 15 14 11 9 10 8 15 11 6 4-3 3-5 2h-7l-5-4v-2l-4-2-10-7 9 11 2 1-1 5-5-1-10-10-8-7-7-8-14-15-1-6 4 2 18 18 6 3-9-12-15-15-1-4z" fill="#4E2E19"/>
<path transform="translate(978,407)" d="m0 0h11l8 4 7 7 5 8 3 12v8h4v-8l2-1v9l-4 10-1 13-3 9-8 9-3-1 10-13 2-11v-8l-5-4-3-3-1 6v2h2l1-3 1 2-3 6-5 7h-2v-8l-3-3v-2l-7 6-1-3 5-7-3 3h-2l-1 4h-11l-1-2 6-12h2l5-5h3l-3 7h2l2-5 3-6h1l3 15h3l2-8 1-13 3-1-4-6-5-4-8-4-10-3z" fill="#D39E6A"/>
<path transform="translate(1136,389)" d="m0 0 1 2-2-1zm-2 2 1 2-5 6v3l20 16 3 3v2l4 2 5 7-1 2-6-2-9-4-8-6-7-7-9-7v-2h-3v15l1 5-6 2-3-9-4-5-7-6-3-7-1-1v-5l1-3 6 2 11 5 9-1 10-6z" fill="#34261E"/>
<path transform="translate(1120,407)" d="m0 0 5 2 15 14 10 10 12 17 3 5v2h2l6 16 2 4 2 10 7 14 4 13 1 4v8l-2 2-1 7h-1v-11l-2-4h-2l-3-7-5-12-1-12-10-5 2-1 6 1-4-11v-3h-2l-8-16-10-15-13-15-13-13z" fill="#864A24"/>
<path transform="translate(1101,498)" d="m0 0 8 1 5 2 3 8 4 6 5 4v2h2l5 6 2 1 3 12 8 26v2l-4-2-8-14-6-16-6-7-5-3-4-1 5 11 1 7-3-4-4-8-7-8-11-9-1-3 5-3z" fill="#8B5026"/>
<path transform="translate(930,757)" d="m0 0h8l12 12 3 1-5-9v-4h10l7 6 4 6h2l1-4 4 2 3 3-1 2-1 1-2 6-4 2-1-2-6-2-2-1v2l-10 5 1-6-9-1h-7l-7-3-22-1v-2l5-2 1-5 5-2 5 1 8 5h2l-5-6z" fill="#818A4E"/>
<path transform="translate(853,697)" d="m0 0 3 2v2l4 2 1 3h2l1-8 2-1 4 4 1 4v16l2-1 3-10 2-1 5 3 4 8 1 15h2l1-3h4l2 13 1 4h-4l-7-2-8-5-3-2 3-4v-4l-1 4-5-2-8-4-6-2v-1h9l-4-6-2-4h-2v-2l-4-2-1-7h-2z" fill="#818B4E"/>
<path transform="translate(1154,488)" d="m0 0 10 3 4 7 7 23 7 14v3h2l1 9v34l-1 1-1 27h-1l-1-26-5-13-4-30-3-10-2 4-2-10-2-4-1-7 1-9-2-8-2-4-5-2z" fill="#864D26"/>
<path transform="translate(1086,571)" d="m0 0 5 2 8 7 6 3 11 11h3l9 9 1 3h5l8 8v5l4-1 5 6v2l4 3h10l3-5 6-1v4l-6 4-11 1-6 2-7 3-6 1-6-2-3 3h-8l-5-2-7-8v-4h5l10 10 4 1 2-4-4-2-7-8v-2l4 2 10 7v2l3 1v2h9l7-3-5-4-12-9-9-7-13-11-8-7-14-12-5-5z" fill="#31251E"/>
<path transform="translate(1184,625)" d="m0 0h6l1 5-5 5-5 4-3 7 6 2 1 4-4 6-6-1-6 8-7 5-8-2-4-5 1-8 8-9 5-2-2-2 1-6 4-3 5 2 1 3 6-3 2-3 2-6z" fill="#CD1825"/>
<path transform="translate(1029,766)" d="m0 0h5l1 1 1 20 7 6 13 7 7 7v1h-10l-9-6-10-5-4-1-1 4 4 4 14 5-1 4-2 3-4-1-14-7-4-4-5 4-7 8-5-5 2-5 8-7 8-6 4-7 1-4z" fill="#CB1E29"/>
<path transform="translate(1108,437)" d="m0 0 6 3 10 9 6 3-3 1 9 11 5 5v4l-4-1-7-8-14-10-5-4h-5l-1 1v5l6 8-12 2-5 5 2 4 9 10 4 4v2l-4-2-5-4-3-1 3 9-1 3-7-12-2-1-7 5 1 4 4 5-1 2-4-4v-2l-3 1v5l-5-3v2l-6 5-5 2 1 8-2-1-7-15v-2h-2l-1-6 2 1v3h2l4 7v2l10-5 5-6 1-5 6-2 5-5 1-7v-4l7-3 3-5-2-7-1-3 8-1 3-4z" fill="#31251E"/>
<path transform="translate(1237,562)" d="m0 0 5 2 7 11v2h2v18l2 22-1 3 10-2 4-3 5 1 1 6-2 2-13 1-7 2-1 2v13l-5-4 2-7-2-1 1-5-7-6-7-3-1-5 3-3 5 1 6 8h3l-1-11-4-7-3-5-1-10v-19z" fill="#9FA568"/>
<path transform="translate(1137,483)" d="m0 0 6 3 10 4 1 13 7 15 6 8 3 19 2 23v38h-2l-1-3-1-18-5-11 1-3h3l-1-18-4-20-13-18-7-14-5-7 1-6z" fill="#50301A"/>
<path transform="translate(839,554)" d="m0 0 4 1 3 11 4 4v2h2l1-3 7 1 2 6-3 4 5 4 4 9 1 6-5 5-5 3h-3l-1 2v-5l-4-2-4-5 1-4 5-2-1-8-4 2-4 4-5-1-3-7 3-4 6 1-2-4-1-6-7-9 2-4z" fill="#CE2629"/>
<path transform="translate(1094,406)" d="m0 0 7 2 4 3v2l4 2 4 6 1 6-2 4-6 2 2 4v8l-4 5h-8l4 8-2 6-5 4h-4l1 8-4 7-4 3h-5l-1 7-8 7-7 2v-2l10-5 4-5v-6l-5-7 2-1 5 6h5l5-5v-5l-7-11 1-2 5 6h4v-17l2-1 8-1 3-6-3-8-4-5v-2l4-1-2-5-8-7 2-5z" fill="#864A24"/>
<path transform="translate(811,636)" d="m0 0 4 2 1 2v9l-1 2h3l1-6 4-5 4 1 4 9-1 15 4-2 3-1-1 10-4 14-11-4v-2h9l-1-2-6-2-5-4v-2l3-3 1-7-3 5h-2l-5-7-3-3 1-5-4-1-3-4-1-7h2l2 3h2z" fill="#808A4E"/>
<path transform="translate(804,550)" d="m0 0h2l-1 4-3 1-2 4-5 5-3 1-1 12 2 3-5 1-3-1 5 10 5 2v1h-5l2 9v8l-4-2-8-9-10-8-2-2v-5l2-2 5 1 6 3-7-14 3-7 5 1 4 4 1-12 4-5 4 1v2l5-3z" fill="#818B4F"/>
<path transform="translate(1077,458)" d="m0 0 3 1 8 13v5l-6 6h-5l-5-5 1 2 3 4v6l-5 6-8 4h-3l-3-5v-2h-2l-1-5 4-5-1-4-1-3 6 1 7-7 1-3-5-3-1-2 10 1z" fill="#4F2E19"/>
<path transform="translate(1106,449)" d="m0 0h5l5 4 14 10 7 7v2l4 1 1-3 3 10-1 2-6-2-4-3 1 9h-2l-5-8-1-3-5-1 2 5-10-4v6l-5-5-4-5-7-4 1-2 10-1v-2l-5-6v-5z" fill="#4F2E19"/>
<path transform="translate(973,531)" d="m0 0h2l9 14 9 10 10 10 11 7 9 12 10 14 1 6v3l-4-1-7-9-4-4-13-19-7-6-5-6-4-2 1 11-4-2-7-8-5-10-1-13z" fill="#36271E"/>
<path transform="translate(1152,479)" d="m0 0 5 2 3 1v2l5 1 8 4 1 12 5 12 2 3v4h2l4 5h-2l2 15 1 20v45l-2 10-3 1v-34l1-1v-43h-2l-9-19-7-24-4-4-8-3z" fill="#392D22"/>
<path transform="translate(806,552)" d="m0 0 1 4-6 14 10-3-1 6-5 5-6 4-2 4 11-2-1 6-7 7 1 5-2 4-1 8-2-4v4h-3l-2-4v-8l-1-9 4-1-5-2-5-11 8 1-2-3 1-12 2-4v3l4-2 5-7z" fill="#9FA568"/>
<path transform="translate(849,486)" d="m0 0 9 2 8 1 8 7 9 7 4 6-1 3v-2h-9l-6 3v-4l-5-1-5 1-16-6-4-7v-4l6-3z" fill="#F1C244"/>
<path transform="translate(1118,488)" d="m0 0 10 3 6 2-1 5 5 14 5 6 3 5 4 4 3 20 5 19v11l-3-1-6-16v-4h2v-6l-1-1-2-10-4-10-13-13-11-14-1-1z" fill="#4E2E19"/>
<path transform="translate(895,511)" d="m0 0 13 1 2 6v3h-2l1 9-2 3 3 5 4 13 3 4v2l-7-1-10-8-4-8-2-6v-22z" fill="#BFC091"/>
<path transform="translate(875,513)" d="m0 0h8l5 1-1 9-3 7-1 13-8-1-6 3v4l5-3 4-1h7l1 2-9 2-4 4 2 6-4-2-5-7-1-10 2-11 5-14z" fill="#ABAB68"/>
<path transform="translate(945,601)" d="m0 0 5 1 1 4-4 5 1 4 6 1 1 4-3 5-12-3 1 7 1 1 7 1v7h-2l-2 5-4 2-6-1-4-6v-11l2-6-2-2 1-6 5-2 2 2h3l1-11z" fill="#CC1B26"/>
<path transform="translate(988,749)" d="m0 0 5 1 10 3h48l9-2h10l-4 4-7 4-13 2h-40l-11-2-8-4-2-3z" fill="#23B4D6"/>
<path transform="translate(997,700)" d="m0 0h10l3 3 8 16 9 20 6 9v2h-12l-8-14-8-23-7-11z" fill="#F1A74D"/>
<path transform="translate(992,482)" d="m0 0 4 5-1 5v11l2 12 2 4-2 10-2-1-1 4-4-1-5-15v-4h-2v6l-2 1v-7l2-10h-2l-3 2 2-6 4-6v-4z" fill="#8F5227"/>
<path transform="translate(1010,700)" d="m0 0h14l1 1 1 12 4 5 6 16 8 16h-9l-9-14-10-23-6-11z" fill="#EDA74E"/>
<path transform="translate(1019,512)" d="m0 0 11 7 3 3 1 5h2l4 11 1 6-7-2 3 6v4l-5-2-5-5-7-9-4-6 1-7z" fill="#502F19"/>
<path transform="translate(913,516)" d="m0 0h1l1 12 5 8 5 5 11 12 2 4-9 1h-11l-6-9-4-14-2-2 2-3v-5l-1-2z" fill="#905529"/>
<path transform="translate(1019,438)" d="m0 0 8 5 2 9 1 13 6 10 3 3-7 3-6 10h-4l-1-8 6-10-4 4-4-6 1-11 1-10-5 4h-2l2-5z" fill="#4E2E19"/>
<path transform="translate(1207,719)" d="m0 0h3l-4 16-6 8-7 5-11 3-21 2h-11l4-2 19-5 14-8 10-9 7-9z" fill="#A0A568"/>
<path transform="translate(1142,471)" d="m0 0 6 1-1 5 4 2 3 3 1 8 5 2 3 6 1 11-1 5 1 6-4-2-7-15-1-13-9-3-5-3 1 7-2 2-9-1-5-2 4-1h6l-6-8-2-4-3-1v-2h5l6 10v2h2l-1-9 4 2 6 2z" fill="#8F5126"/>
<path transform="translate(956,385)" d="m0 0 3 1v14l3 1-5 3-6 4-2 4-2 3 2 3-2 4-6 4-3 3h-8l-3 3 5 1v1l-9-1 3-6 2-2 1-4 9-9 5-8 5-12 2 2 2 6 2-1 1-3z" fill="#CE9B65"/>
<path transform="translate(982,639)" d="m0 0 12 1 11 5 9 3 10 6 1 3 2 1v-4h10l4 2-1 3-7 7-23-11-2-6-5-1v3l-9-3-4-1-1 2-1-3h-9l-9 3-6 4 2-4 7-7z" fill="#28BADE"/>
<path transform="translate(1029,359)" d="m0 0h19l13 3 11 6 7 9 1 7-2-2-4-8-6-5-9-3-6-1 3 5 5 5-7-1-21-1-6-3-3-7 3-3z" fill="#D39D6A"/>
<path transform="translate(1066,652)" d="m0 0h2v2l7-2v2l9-2 5 5 2 3h10v2l-7 2-5-2-3-3-3-1h-8l-9 2v1l3 1-2 1v4l-9 3-11 1-2 6-4-2-6-7 1-7 5-4 4 2 4 7 5-2 4-6z" fill="#147877"/>
<path transform="translate(1042,507)" d="m0 0 5 2 6 8 6 12h3l1-12 2 4 1 8v9l-5-1-2 1 1 4v11l-1 2-4-1-7-5-9-14-4-8 1-2 8 12 8 10-1-8-4-10v-2l6 1-6-12-5-6z" fill="#874B24"/>
<path transform="translate(1119,761)" d="m0 0h9l4 1v2l-13 4-22 12-11 3h-10l-4-2v-2l18-8 16-7 6-2z" fill="#7F884C"/>
<path transform="translate(1054,669)" d="m0 0 5 1-2 3h-2l-4 8-8 5-8 14-3 9h-3l-3-10 8-25 5-2 6 5 1-6 1-1z" fill="#2AB3D5"/>
<path transform="translate(993,536)" d="m0 0h2l3 6v2h2l6 9 5 5 8 9v3l11 3 1 3h2l6 11 8 10v2l-6-2-13-11-10-13-2-5-11-8-8-9-6-8-2-3v-3z" fill="#34261D"/>
<path transform="translate(998,519)" d="m0 0h2l7 8 2 4h5l1 4h2l7 11 5 7-1 5-5-2-5-8-2-1v6l-6-3-10-14-2-4-2-1z" fill="#513019"/>
<path transform="translate(983,489)" d="m0 0h2l-1 5-5 8 4-2 1 2-2 10v6l1-6h2l5 17 1 2 3 1 1-7h1l-1 9-2 3-4-1-8-7-5-8-4-12v-13l3-6h7z" fill="#D39D6A"/>
<path transform="translate(1118,490)" d="m0 0h1l1 11 11 13 7 8 8 8 4 12 1 7 1 5-3 3-2-4-6-16-6-8-7-6v-2h-2l-8-8-4-8v-4l-4-1 7-1z" fill="#864C25"/>
<path transform="translate(989,559)" d="m0 0 7 6 2 2-2 11 4-1 2 14-8-1-18-4 2-4 8-3-8-7-2-6 4-1 5 3 4 2h1z" fill="#D39D6A"/>
<path transform="translate(1243,631)" d="m0 0h2l-2 9-9 25-6 11-7 8h-2l1-11 5-15 8-15 7-9z" fill="#7E884C"/>
<path transform="translate(981,630)" d="m0 0 4 3v2l11 2 7 2-1-4 4 2 1 4 2 1v-3h2v4l11 6 4-5h8l2 3v7h-9v4l-3-1-1-3-14-7-15-6-12-1-9 3-6 5h-2l1-6-2-4 6 2 8-5-2-4z" fill="#0C8083"/>
<path transform="translate(1167,460)" d="m0 0 3 4 4 12 1 1 2 10 7 14 4 13 1 4v8l-2 2-1 7h-1v-11l-2-4h-2l-3-7-5-12-1-12-10-5 2-1 7 2-3-18z" fill="#935A2E"/>
<path transform="translate(1094,571)" d="m0 0 6 2 10 9 9 6 6 7 12 6-2 1 5 5 5 3 7 3 1 4 9 7 1 3-6-2-10-7-3-1v2h-2l-2-6-6-6h-5l-4-6-6-5v-2l-4 1-11-12-8-7z" fill="#884B24"/>
<path transform="translate(1026,354)" d="m0 0 6 1-2 2h18l4-1 15 6v2l4 2 1 2-5-2-9-4-10-2h-19l-4 1 1 5 1 4 6 2 21 1 5 1v1l-7 1-5 1-9 1-10-2h-6l-6-5-1 2-7-3v-1h8l2 1v-10l5-5z" fill="#8F5327"/>
<path transform="translate(1053,365)" d="m0 0 10 1 8 4 6 7 2 5-1-5-6-9 5 1 8 4 6 8 2 5v3l-10-3-2-1h-6l-6-5-5-3-9-7-2-2z" fill="#874B24"/>
<path transform="translate(1049,567)" d="m0 0h2l12 24 5 5-4-10-2-11 3 3 4 9v-9l-2-8h2l3 7 1 11h3l-2-9v-6l1 2h2l-3-4 2-4 2 2 3 14 4 1-1 3-3 1-1 5h-5l-2-1-2 8-4 1-7-7-4-6-7-19z" fill="#864A24"/>
<path transform="translate(1190,498)" d="m0 0 7 1 6 5 2 4 2 18-1 17-2 7-2-2-1-3-2-21-4-11-5-8z" fill="#884C25"/>
<path transform="translate(1140,647)" d="m0 0h2v3l5 2-3 5-6 4-4 4-1-2h-3l1 6-7 8-10 5-3 3-3-1 2-1 1-3-4 2-2 3v-4l-5-1 1-3h11l5-4 7-11 5-5 9-7z" fill="#2EB8D9"/>
<path transform="translate(1013,766)" d="m0 0h6l1 1v16l-2 7-14 9-7 9-9 3 1-5 7-9 9-8 7-4v-14z" fill="#087A6A"/>
<path transform="translate(1260,552)" d="m0 0h2v14l-6 26-2 23-2 1-2-21v-14l2-14 4-10z" fill="#7F894D"/>
<path transform="translate(1019,450)" d="m0 0h2v10l-1 11 3 5 3-5 2-2-1 6-4 6-5 3-1 11h-1l-1-13-11 8-6 1-1-2 8-6 5-6 2-8 1-13 5-5z" fill="#874B24"/>
<path transform="translate(1089,422)" d="m0 0h12l-1 3h-4l4 6 3 5 1 5-4 6-9 1v15l-3 3-3-1 3-1v-7l-5-7 1-6h8l1-7-6-8 1-6z" fill="#4E2E19"/>
<path transform="translate(1262,643)" d="m0 0h2l-10 20-9 17-8 7-6 2-4-1h2l2-4h2l2-4 7-11 9-17 2-5z" fill="#9FA568"/>
<path transform="translate(988,393)" d="m0 0 10 1 15 4 5 1 2 3-5 3-4 2 2 7-12-7-10-3-7-1-1-1v-6h5z" fill="#D09B67"/>
<path transform="translate(995,489)" d="m0 0 9 2-1 7-3 7 2-2h3l4 15 3 11-1 3-5-5-9-10-2-8-1-6v-11z" fill="#D19C6A"/>
<path transform="translate(968,377)" d="m0 0 2 1 3 9v3h2l2-6 3-3v14l-6 4 6-2-2 5-4 5-7 5h-5l-4-1-4 3-2-1 11-9 3-4 1-22z" fill="#D19C6A"/>
<path transform="translate(1090,472)" d="m0 0 5 2 11 12 3 3v2l-4-2-5-4-3-1 3 9-1 3-7-12-2-1-7 5 1 4 4 5-1 2-4-4v-2l-3 1v5l-5-3v2l-6 5-5 2 1 8-2-1-7-15v-2h-2l-1-6 2 1v3h2l4 7v2l10-5 5-6 1-5 6-2 5-5z" fill="#4C2D19"/>
<path transform="translate(1133,496)" d="m0 0 5 1 5 9 5 10 2 6 4 4v2l3 1 3 7v8l1 4 2 2 1 7h-2v3l-3 1-2-9-2-16-3-5-9-10-3-5-4-6-3-9z" fill="#90562A"/>
<path transform="translate(1017,402)" d="m0 0h5l8 10 8 15 3 4v3l-9 1-4-13-7-8-3-4 1 5 2 4-1 3-9-11v-4z" fill="#362C22"/>
<path transform="translate(1088,578)" d="m0 0 8 6 15 14 11 9 10 8 15 11 4 4-2 2-4-1-15-12-16-12-13-12-6-5v-2h-2l-5-6z" fill="#864A24"/>
<path transform="translate(1197,706)" d="m0 0h5l-2 5-7 8-15 10-9 8-8 6h-2l2-5 10-11 5-6 14-11z" fill="#7F884C"/>
<path transform="translate(1129,779)" d="m0 0 7 2 1 2-12 4-24 10-4 1h-10l-8-4v-1l15-2 21-7 9-4z" fill="#A9AA68"/>
<path transform="translate(949,467)" d="m0 0 5 4-1 7-11 12-3 3h-2v-2l-3 1h-7v-9h5v6h2v-6h13v-2l-5-2v2h-8l1-8 9-1z" fill="#91582C"/>
<path transform="translate(885,671)" d="m0 0 10 2 6 4 2 3v6l-2 4h-8l-7-4-5-5-1-7z" fill="#F4C641"/>
<path transform="translate(1230,635)" d="m0 0h3v2h-3l-2 4-9 15-2 8-2 25-2-1-2-15-2-8 1-10 6-10 10-8z" fill="#828B4F"/>
<path transform="translate(1084,590)" d="m0 0 4 2 35 35 7 5-1 5-5-1-10-10-8-7-7-8-14-15z" fill="#864A24"/>
<path transform="translate(879,593)" d="m0 0 4 2 2 5 4 3 4 7 6 10 3 9 1 8-2 4h-2l-2-11-4-12v-2h-2l-7-8-5-4-6-2h-6l1-6h11z" fill="#2CBCE1"/>
<path transform="translate(1051,397)" d="m0 0 4 1 4 8 3 11 1 8v15l-3 9-7 8-8 5h-3v-2l6-4 4-2 2-4 4-11-1-17-5-22z" fill="#CE9D6A"/>
<path transform="translate(906,493)" d="m0 0h3l-1 2-2 2 5 2 4 2-1 3h2v-3l10 1-6 7-5 9h-3l-2-4v-3l3-1h-4l-2-8v8l-9-1-2-1 2-6 6-8z" fill="#B9BA84"/>
<path transform="translate(1037,436)" d="m0 0h2l3 12 1 8 6-4 2-2v-6l6-1-1 5-4 6-8 6h-2l-2 5-3-1v-3h-2l-5-19 2-5z" fill="#2E241E"/>
<path transform="translate(1e3 772)" d="m0 0 7 1 5 2-1 7-14 7-9 6h-6l-2-4 9-6 15-7h2v-3l-12 3-8 4-4-1 7-4h2v-2z" fill="#AAAA68"/>
<path transform="translate(1102,752)" d="m0 0h13v2l-12 4-16 12-8 4-10 1v-2l8-4 12-12 9-4z" fill="#828B4F"/>
<path transform="translate(1101,498)" d="m0 0 8 1 5 2 3 8 4 6 5 4v2h2l5 6 2 1 1 9-3-3-2-4-14-11-7-7-6-5-3-1z" fill="#362B22"/>
<path transform="translate(1108,450)" d="m0 0 5 3 12 11 12 12 7 1 1 5-7-2-4-3 1 9h-2l-5-8-1-3-5-1 2-2-8-8-8-7-2-3v-3z" fill="#874A24"/>
<path transform="translate(996,770)" d="m0 0h14l2 1v3l-11-1-9 2v2l-8 5-4 2-6 5-7 8-2 1h-7l2-6 1-2 7-1 3 1 1-7 4-4 7-1v-2h2l1-4z" fill="#ACAB69"/>
<path transform="translate(1097,392)" d="m0 0 6 2 13 6v2h2l-1 5-2 4-10 2-5-5-3-7-1-1v-5z" fill="#56321A"/>
<path transform="translate(1017,499)" d="m0 0 2 2h4l4 10 6 5 4 2 5 12 4 4 2 4v-3l1-3 4 11v5l-5-5-7-9-5-8-2 1-2-7-5-2-7-5-2 4z" fill="#874B24"/>
<path transform="translate(939,734)" d="m0 0h7l4 1 3 5-1 5-5 3-4 1h-7l-5-2-1-6 5-5z" fill="#F3C441"/>
<path transform="translate(899,559)" d="m0 0 4 4 4 14 5 5v2l-4 1-1 2-1-1v-8h-3l1 9-3-1 1-4-7-2-2-4-3-1 2-9 1-1h8v-2h-7v-2h5z" fill="#A6A665"/>
<path transform="translate(1090,482)" d="m0 0 3 3 3 11-7 1 7 9-1 3-7-1-6-4-3-5 1-7 3 1 4 4-5-6 1-4z" fill="#854A24"/>
<path transform="translate(1196,679)" d="m0 0h5l2 3 3 9 7 8h2v2h14l2 1v7l-3 2-4-1-3-3-10-3-5-5-7-10-5-3-1-4z" fill="#F2C343"/>
<path transform="translate(1180,703)" d="m0 0h3l-1 4-3 7-7 8-10 10-7 11-1-4 2-10 4-6 10-10 8-7z" fill="#818A4E"/>
<path transform="translate(938,470)" d="m0 0 5 1-3 3-5-1-1 8h8v-2l5 2v2h-13v6h-2v-6h-5v9l6-1 2-1 2 1v2l-7 1-4-1 1 8-1 1-10-1v3h-2v-3l-7-3-2-2 3-2 1 3 5 1v-9h4v3h-2v7l7-1 1-4h-5v-2l5-1v-9l4-2 4 1v-7l3-3z" fill="#fff"/>
<path transform="translate(1e3 447)" d="m0 0 3 1 6 6-1 16-3 6-7 8h-2l1-5 2-7v-8l-2 1 4-10-4 2z" fill="#8F5126"/>
<path transform="translate(875,513)" d="m0 0h8l5 1-1 9-3 7h-15l2-5-1-4 3-7z" fill="#A9AA68"/>
<path transform="translate(1184,625)" d="m0 0h6l1 5-5 5-5 4-3 6-2 2-7-1-1-3h-5l-1-5 5-5 5 2 1 3 6-3 2-3 2-6z" fill="#CC1D28"/>
<path transform="translate(1075,657)" d="m0 0h8l5 3 9 8 1 3-4 1h-8l2-1v-3h-3v2h-2l-2-4-9-1-2 5h-2v-3l3-3-4-1-4-2 6-3z" fill="#3CC1E2"/>
<path transform="translate(1185,547)" d="m0 0h1l2 13v45l-2 10-3 1v-34l1-1z" fill="#3B3B2F"/>
<path transform="translate(1016,533)" d="m0 0 4 4 9 12 8 8 5 4-4-10-5-8 1-2 7 4 6 4 1 3v12l-4 1-9-5-7-7-9-13-3-5z" fill="#D59E67"/>
<path transform="translate(1126,702)" d="m0 0 7 1 4 4-2 5-5 4-6 3-5-1-3-2 1-6 2-4z" fill="#F3C643"/>
<path transform="translate(1062,417)" d="m0 0h1l2 20 2 7-2 10-5 5-7 4h-2v2h-2l-2 4-4-1-1-6 10-5 8-9 2-8z" fill="#8F5126"/>
<path transform="translate(918,627)" d="m0 0h12v10l-8 1-1-2-11 2-6 5h-2l1 12-3-1-1-7 5-10 7-6 7-3z" fill="#34BFE3"/>
<path transform="translate(895,511)" d="m0 0 13 1 2 6v3h-2v4h-2l-2 4-5 1-2-2 4-2-7 1v-15z" fill="#B0B173"/>
<path transform="translate(1119,620)" d="m0 0 4 2 10 7v2l3 1v2h9l7-2-4 4-10 2-6-2-3 3h-8l-5-2-7-8v-4h5l10 10 4 1 2-4-4-2-7-8z" fill="#322C25"/>
<path transform="translate(1107,725)" d="m0 0 7 1 4 6-1 6-4 4-5 1-6-3v-10l1-3z" fill="#169AAF"/>
<path transform="translate(1105,435)" d="m0 0 3 2v8l-4 5h-8l4 8-2 6-5 4h-4l1 8-4 7-4 3h-5l-1 7-8 7-7 2v-2l10-5 4-5v-6l-5-7 2-1 5 6h5l5-5v-5l-7-11 1-2 6 7 7-1 3-4-1-5-4-7 12-3 2-2z" fill="#D29F59"/>
<path transform="translate(1054,702)" d="m0 0 3 1v2l-3 3-3 12-5 1h-9l-5-1 7 16 6 12v2l7-1 7-9h6l2 2v3h-2v-3l-5 1-2 9-9 2-14-3v-1l8-1-9-17-4-11v-3h20l2-11z" fill="#884D25"/>
<path transform="translate(952,566)" d="m0 0h14l2 8v5l-4 3-8-1-3-1-1-4z" fill="#8F5127"/>
<path transform="translate(1032,558)" d="m0 0 10 5-3 1 1 6 11 19-2 2-4-1-12-16-2 2-1-4 3-1z" fill="#502F19"/>
<path transform="translate(1035,525)" d="m0 0 4 4 7 11 6 7-1-8-4-10v-2l5 1 4 4-1 2-3-1 5 9 3 3v8l-1 2-4-1-7-5-9-14-4-8z" fill="#D69E67"/>
<path transform="translate(976,771)" d="m0 0 10 2-1 3h-2v2l-8 3-2 2-2 7h-9l-1-4-5 5-2 1 2-5 2-4-1-4 5-1v-2l10 3h2l2-7z" fill="#9FA567"/>
<path transform="translate(1169,545)" d="m0 0h1l2 23v38h-2l-1-3-1-18-5-11 1-3h3v-17h2z" fill="#5D4628"/>
<path transform="translate(983,533)" d="m0 0 4 1 3 3 1 4 4 6 9 11 10 8 4 3 3 8 2 7-5-5-5-7-6-3-1-5-15-15v-2h-2l-3-6v-2l-3-1z" fill="#864A24"/>
<path transform="translate(889,756)" d="m0 0 4 1 2 2 12 2 1 3-10 1-1 5-2 2-9-2-5-3 1-4z" fill="#F4C342"/>
<path transform="translate(959,388)" d="m0 0h1v11l3-1 3-6h1v8l-7 8-7 5 5-3h5l-1 3-11 6-8 9-5 2 1-3 8-6 1-4-2-3 2-2 2-5 5-2 4-5z" fill="#E8A754"/>
<path transform="translate(1039,564)" d="m0 0h5l4 3v2h2l6 16v5l-6-1-8-13-4-9z" fill="#2D231E"/>
<path transform="translate(930,428)" d="m0 0 8 1 8 2v1l-8 2-10 7-3 4-1 9v2l-5-1-2-4v-6l4-6 4-4 4-2-2-1 1-3z" fill="#fff"/>
<path transform="translate(1172,534)" d="m0 0h3l3 3v6h2l2 16v8l-3 3-2 3-2-11-3-22z" fill="#905C2E"/>
<path transform="translate(1077,458)" d="m0 0 3 1 8 13v5l-6 6h-5l-1-2 3-3-1-5-4-6v-2h-2v2l-6-2-2-3 10 1z" fill="#4C2D19"/>
<path transform="translate(993,536)" d="m0 0h2l3 6v2h2l6 9 5 5 8 9v3l2 1h-2l-1 2-2-5-11-8-8-9-6-8-2-3v-3z" fill="#35271E"/>
<path transform="translate(871,495)" d="m0 0 5 2 7 6 4 6-1 3v-2h-9l-6 3v-4l-3-1-3-6 1-5h5z" fill="#B0A969"/>
<path transform="translate(945,601)" d="m0 0 5 1 1 4-4 5 1 4 6 1 1 4-3 4-12-4-2-2-4 2-1-5 4-1 5-1 1-11z" fill="#E37841"/>
<path transform="translate(1081,589)" d="m0 0 2 2 1 10 2 5h-4l-3 1h-8l-5-5h4l2-10h3l5 1z" fill="#2D231E"/>
<path transform="translate(1207,719)" d="m0 0h3l-1 3-5 4-4 6h-2v2l-13 10-14 7-10 2h-11l4-2 19-5 14-8 10-9 7-9z" fill="#80884C"/>
<path transform="translate(975,458)" d="m0 0h7l-3 10-3 7-2 4-6 1-4-1 1-5z" fill="#DEA051"/>
<path transform="translate(844,673)" d="m0 0 4 1 4 9-1 5-3 1-1 2-1 9-4-1-1-10-3-3 1-5 3-2z" fill="#F2C243"/>
<path transform="translate(1152,479)" d="m0 0 5 2-2 1v3l4 1 10 5 4 16 5 14 5 10v7l-2-3-8-16-7-24-4-4-8-3z" fill="#4D2D19"/>
<path transform="translate(890,579)" d="m0 0 10 4v2l-7-1-1 4h7l1 4 4-2 7-4 1 1 2-3h2v3l3 1-5 5-3 1h-2l-5 2-6-1-3 3-4-8z" fill="#A3A262"/>
<path transform="translate(1127,534)" d="m0 0 6 3 4-1 5 17 4 13v2l-4-2-8-14-6-16z" fill="#8D572C"/>
<path transform="translate(1017,361)" d="m0 0h1v9h-9l7 3v2l-12 3-3 1-1-5 1-5 5-5 10-2z" fill="#D19D6A"/>
<path transform="translate(1073,498)" d="m0 0h2l3 5v2h-2l2 10-2 2h-8l-5-12 3-2 5-3z" fill="#864A24"/>
<path transform="translate(1e3 544)" d="m0 0 7 6 9 10 2 1-1-11 4 5 6 11v3l5-1-1 4-3 1-9-3-3-5-8-10-4-4-4-5z" fill="#D49F68"/>
<path transform="translate(1114,474)" d="m0 0 5 2 4 2 2-1 7 9 2 4h-12l-5-2-3-5-1-8z" fill="#874B24"/>
<path transform="translate(899,438)" d="m0 0h16l-1 4-1 9 1 4h-8v-7h3v2h2v-3l-5-2-2-4-5-1 1 7-1 4h2v4h-8l-1-2h3l1-5 1-2v-6z" fill="#9A9E61"/>
<path transform="translate(774,610)" d="m0 0h14l2 8 7 6-1 4-7-4-2-2h-8l-2-5-3-3z" fill="#F3C443"/>
<path transform="translate(1252,648)" d="m0 0 2 1-10 18-7 12-4 5-4 4h-2v2l-6 1 4-5h2l2-4 7-10 8-15z" fill="#7F884C"/>
<path transform="translate(975,540)" d="m0 0 4 4 6 9 2 8 2-4 1 2 1 12-4-2-7-8-5-10z" fill="#915D2F"/>
<path transform="translate(812,599)" d="m0 0h4l-1 10 1 4-7 2-6 11-2-1v-6l4-5-1-9 6-4z" fill="#F5C441"/>
<path transform="translate(942,587)" d="m0 0 2 1 3 6v2l-12 5h-8v-2l-6 3-3-1 16-10z" fill="#523720"/>
<path transform="translate(1029,467)" d="m0 0h2l5 8 3 3-7 3-6 10h-4l-1-8 7-12z" fill="#2C231E"/>
<path transform="translate(964,415)" d="m0 0h3l1 3 12-2-1 5-5 4h-2v2h3l-1 4h-3v-5l-7 1-5-6 2-4z" fill="#864A24"/>
<path transform="translate(1016,371)" d="m0 0 4 2 4 3 16 8 9 6 5 5-1 2-14-4v-1h6l-2-3-3-1v-2l-8-2-11-1 4-2h2v-2l-22-1 1-2 10-1z" fill="#472C1A"/>
<path transform="translate(1086,579)" d="m0 0 2 4 2 5 8 7 8 8 7 10h-3l-6-4-18-18-1-8z" fill="#2F241E"/>
<path transform="translate(1026,799)" d="m0 0 4 2 3 3 14 5-1 4-2 3-4-1-14-7-4-5 1-2h3z" fill="#0F7A66"/>
<path transform="translate(824,694)" d="m0 0 5 4 1 2 7 1 3 2v2l-10 1-5 3-5-1-5-5-1-3 7-2z" fill="#F3C442"/>
<path transform="translate(1149,529)" d="m0 0h1l4 21 4 16v11l-3-1-6-16v-4h2v-6l-1-1-2-13z" fill="#5A3F24"/>
<path transform="translate(851,739)" d="m0 0h8l3 1 2 4 9 3-4 4-4 2-5-1-7-5-3-5z" fill="#ABAB68"/>
<path transform="translate(1037,779)" d="m0 0 7 1 14 7 6 5 1 3-5 2-5-3-8-6-9-4v-3l-2-1z" fill="#ABAB68"/>
<path transform="translate(906,734)" d="m0 0 5 3 5 6-4 5 1 11-4-1-2-8-6-5 4-10z" fill="#F1C244"/>
<path transform="translate(1071,479)" d="m0 0 5 5v6l-5 6-8 4h-3l-4-7v-2h10l4-9z" fill="#8F5126"/>
<path transform="translate(1098,467)" d="m0 0 4 1 4 4 2 4 3 5-1 3h-4l-1 2-8-8-4-5 2-4z" fill="#864A24"/>
<path transform="translate(1122,474)" d="m0 0h5l6 10v2h2l-1-9 4 2 8 6 7 2v2l-9-1-6-4 1 7-2 2-9-1-5-2 4-1h6l-6-8-2-4-3-1z" fill="#D5A25F"/>
<path transform="translate(956,780)" d="m0 0h2l1 4-6 10-6 4h-6l-3-2 1-5 5-6 1 3h2v2l4-1 2-4z" fill="#AAAB68"/>
<path transform="translate(968,377)" d="m0 0 2 1 3 9v9l-4 8-15 10-2-1 11-9 3-4 1-22z" fill="#9B6739"/>
<path transform="translate(1105,472)" d="m0 0 5 4 7 10 1 2v11l-1 1h-8l-5-2v-1h8l3 1-6-8-3-3v-3l4-1-2-5-3-4z" fill="#D49E64"/>
<path transform="translate(1015,406)" d="m0 0 4 1 2-1v2l4 2 4 7 2 5 1 7h5l2 4 2 1-9 1-4-13-7-8-3-4 1 5 2 4-1 3-5-6-1-9z" fill="#4D2D19"/>
<path transform="translate(1117,499)" d="m0 0 2 4 2 5 2 1v2l3 1 9 12v2h2l-1 4-8-7v-2h-2l-8-8-4-8v-4l-4-1z" fill="#92562B"/>
<path transform="translate(1104,449)" d="m0 0 2 1-1 1v5l6 8-12 2-6 7-4-1v-4l7-3 3-5-2-7-1-3z" fill="#33271F"/>
<path transform="translate(979,379)" d="m0 0 4 3 2 9 13 1 13 4h8v3l-11-1-20-5v3l-7-1-1 4h-2l-5 1 5-5h2z" fill="#935F31"/>
<path transform="translate(919,590)" d="m0 0 2 4v6l-2 2-4 2h-10l-8-4-1-2 11-1-1 5h2v-5l8-4z" fill="#A9A968"/>
<path transform="translate(1105,653)" d="m0 0h5l4 6v8l-5 4h-5l-1-2 2-1-1-6-3-2 2-4z" fill="#403627"/>
<path transform="translate(1109,449)" d="m0 0 4 2 17 12 7 7v2l4 1 1-3 2 7-5 1-6-4-9-10-7-7-8-6z" fill="#4D2D19"/>
<path transform="translate(1099,408)" d="m0 0 5 2 1 3 4 2 4 6 1 6-2 4-6 2-2 4-3-7 6-2v-6l-7-8z" fill="#8F5327"/>
<path transform="translate(1090,472)" d="m0 0 5 2 11 12 3 3v2l-4-2-5-4-3-1 3 9-1 3-7-12-2-1-4-1 3-6z" fill="#31251D"/>
<path transform="translate(1162,649)" d="m0 0 5 2 3 5-1 5-3 3-6-1-3-2-1-7 3-4z" fill="#D0AA59"/>
<path transform="translate(1014,482)" d="m0 0 1 2-2 14-2 1-5-1 1 5-6 2-2 1 2-7 3-8-2-1 6-4z" fill="#864A24"/>
<path transform="translate(1096,509)" d="m0 0h3l4 6 6 6 6 2v2h-2l5 11 1 7-3-4-4-8-7-8-11-9-1-3z" fill="#3C2F23"/>
<path transform="translate(947,675)" d="m0 0 6 1 4 5v6l-5 4h-3v-3l3-1v-5l-5-2h-2v9h2v3l-5-2-2-3v-6l4-5z" fill="#1EAAC7"/>
<path transform="translate(889,604)" d="m0 0 5 3 6 8h3l1 9 2 7 5-2 3-2v-2l4 2 1 2-9 4-8 6-1-10-3-9-7-12z" fill="#13848D"/>
<path transform="translate(1240,575)" d="m0 0 3 3 1 5 1 9 4 8-1 7-2-1-4-7-3-5-1-10z" fill="#828B4E"/>
<path transform="translate(1017,409)" d="m0 0 5 5 7 8-1 11-7-1-2-3-1-9 2 1-2-6-1-1z" fill="#864A24"/>
<path transform="translate(1128,386)" d="m0 0h6l1 5-8 6-4 2-9 1v-3z" fill="#D29D69"/>
<path transform="translate(1145,756)" d="m0 0 4 2 6 5 7 1 2 3-1 4-2 2h-5l-6-7-7-5 1-4z" fill="#F5C342"/>
<path transform="translate(822,684)" d="m0 0 7 1v2h3v2l3 1 5 6 3 3 3 1 1-3 2 7-5-1-5-3 1 3-4-2-7-8-7-6-2-2z" fill="#ABAA68"/>
<path transform="translate(1094,571)" d="m0 0 6 2 10 9 9 6-1 5-4 1-9-10-10-9z" fill="#8C4F26"/>
<path transform="translate(849,574)" d="m0 0 5 2-1 4-4 2-3 6-6 1-3-4-1-4 3-4 6 1 1-2z" fill="#CB2229"/>
<path transform="translate(947,481)" d="m0 0 3 1-11 11h-2v-2l-3 1h-7v-9h5v6h2v-6h13z" fill="#989B5E"/>
<path transform="translate(1121,779)" d="m0 0h8v1l-9 3-19 7-13 3h-11l-3-2 1-3 5 1 2 1 11-1z" fill="#7E884C"/>
<path transform="translate(1135,735)" d="m0 0h6l2 2v9l1 2v7l-4 1-2-4v-7l-4-2-2-5z" fill="#F2C343"/>
<path transform="translate(1026,644)" d="m0 0h8l2 3v7h-9v4l-3-1-1-3-3-3z" fill="#322C24"/>
<path transform="translate(1118,406)" d="m0 0h1v15l1 5-6 2-3-9-5-7 9-2 1-3z" fill="#32251E"/>
<path transform="translate(870,538)" d="m0 0h7l1 3-9 4v4l5-3 4-1h7l1 2-9 2-4 4 2 6-4-2-5-7-1-10z" fill="#ADAB67"/>
<path transform="translate(1041,657)" d="m0 0 4 2 3 6v2l-4 2-1 6-4-2-4-5 1-7z" fill="#30261F"/>
<path transform="translate(1097,484)" d="m0 0 5 1 5 5 4 1 4 5v2h-10l-3 1-2-1-3-9z" fill="#864A24"/>
<path transform="translate(981,630)" d="m0 0 4 3v2l6 1 1 2h-10v2l-9 3-6 5h-2l1-6-2-4 6 2 8-5-2-4z" fill="#0A7464"/>
<path transform="translate(1270,566)" d="m0 0h3l-1 21-4 8-7 8-1-2 6-13 2-8z" fill="#7E884C"/>
<path transform="translate(805,584)" d="m0 0h3l-1 6-7 7 1 5-2 4h-4v-4l-2-1 3-7 1-6z" fill="#ABAB68"/>
<path transform="translate(811,636)" d="m0 0 4 2 1 2v9l-2 2-2-2-5 1-4-5-1-7h2l2 3h2z" fill="#828C4F"/>
<path transform="translate(1266,615)" d="m0 0 5 1 1 6-2 2-13 1-7 1 1-5 11-3z" fill="#EEBE44"/>
<path transform="translate(1090,482)" d="m0 0 3 3 3 11-7 1-1 2-4-6-2-2 1-4z" fill="#905227"/>
<path transform="translate(795,607)" d="m0 0 2 3v4h2v5h2l1 6 2-1-1 13-5-2-4-8h2l-2-13h2z" fill="#ADAB68"/>
<path transform="translate(1030,353)" d="m0 0h21l12 2v3l-7 1-5-2v1h-23l2-2z" fill="#80572E"/>
<path transform="translate(1100,509)" d="m0 0 11 5 11 10 1 3h-4l-4-2v-2l-6-1-9-9z" fill="#996030"/>
<path transform="translate(1105,438)" d="m0 0 2 2-1 5-4 3-9 2 5 8-1 5-3 3-7 1 1-2h2v-17l2-1 8-1 4-5z" fill="#864A24"/>
<path transform="translate(1013,584)" d="m0 0 4 4 4 7 2 2-1 7-5-4-5 3-1-3v-9z" fill="#844D27"/>
<path transform="translate(940,458)" d="m0 0 3 3 2 5-4 1 8 2-5 4-6-2-5 3-1 7-6-1 2-4 6-7 3-7z" fill="#8C8950"/>
<path transform="translate(1233,608)" d="m0 0 5 1 6 8 4 3-2 5-8-6-7-3-1-5z" fill="#F1C244"/>
<path transform="translate(1059,538)" d="m0 0 5 1h4l2-1 1 3-2 3-4-2v7l3 8v4l-3 1-4-5z" fill="#2F241E"/>
<path transform="translate(926,779)" d="m0 0 4 1 9 3-5 5-4 2h-9l-1-4z" fill="#ABAB68"/>
<path transform="translate(1092,485)" d="m0 0 5 5 4 8-1 8-5 5-3 1 1-3 2-1-2-5-4-4v-2l7-1-4-9z" fill="#D0A063"/>
<path transform="translate(1029,452)" d="m0 0h1l2 8 1-7 2 4 3 10 3 9h-5l-6-9-1-4z" fill="#864A24"/>
<path transform="translate(907,771)" d="m0 0 1 2h13l2 1-1 3-9 4-10-1h-2l2-5z" fill="#ABAB68"/>
<path transform="translate(988,393)" d="m0 0 10 1 15 4 5 1 2 3-7 2-10-3-11-4-4-1z" fill="#E9A653"/>
<path transform="translate(986,437)" d="m0 0 2 1-3 7h2l1-2-1 5-3 4h-2v2l-4 2 1-5-4 3v3l-3-1 6-13h2l5-5z" fill="#D09D6A"/>
<path transform="translate(1073,652)" d="m0 0h2v2l9-2 5 5 2 3h10v2l-7 2-5-2-3-3-3-1h-14v-4z" fill="#1E7164"/>
<path transform="translate(991,454)" d="m0 0h2l4 5-2 14-2 3v-10h-2l-1 4-2-2 1-4-3-1 2-6z" fill="#905227"/>
<path transform="translate(1047,492)" d="m0 0 3 1 1 9 4 9-1 5-4-2-4-5-3-3 1-2h2z" fill="#2D231E"/>
<path transform="translate(1250,606)" d="m0 0h1v10l2 1-1 3 2 1h-3l-2 8v13l-5-4 2-7-2-1 3-8-1-4 1-4v-2h2z" fill="#AAA868"/>
<path transform="translate(898,543)" d="m0 0 10 2 2 2 2-1 4 8 1 3-7-1-10-8z" fill="#A9AA6A"/>
<path transform="translate(1109,625)" d="m0 0h5l10 10 2 1v2l2 1h-7l-5-2-7-8z" fill="#2D2620"/>
<path transform="translate(1142,471)" d="m0 0 6 1-1 5 4 2 3 3v7l-1-2-7-1-5-5 3-1z" fill="#9A6335"/>
<path transform="translate(941,562)" d="m0 0h4l1 11-6 4h-3l-1-7 3-7z" fill="#3D2B1F"/>
<path transform="translate(1072,465)" d="m0 0h2l6 9-1 6-4 1-5-6-2-1 1-4z" fill="#2E241E"/>
<path transform="translate(1088,469)" d="m0 0 2 3-1 7-7 7h-5l-1 7-8 7-7 2v-2l10-5 4-5v-6l-5-7 2-1 5 6h5l5-5v-6z" fill="#D5A258"/>
<path transform="translate(899,440)" d="m0 0h7v5l5 2v3h-2v-2h-3v7h-5v-4h-2z" fill="#C8CAA2"/>
<path transform="translate(1184,625)" d="m0 0h6l1 5-5 5-5 4-2 3v-2h-2v-2l-2-1 4-2 2-3 2-6z" fill="#EFBC46"/>
<path transform="translate(1100,565)" d="m0 0 4 2 28 21-1 2-4-2-14-10-9-7v-2l-4-1z" fill="#714E2A"/>
<path transform="translate(839,554)" d="m0 0 4 1 3 11 2 4-4 3-4-8-5-6 2-4z" fill="#F0BF43"/>
<path transform="translate(978,591)" d="m0 0 9 3 2 2-1 1h-9l2 4-17-1-1-2 7-1v-3l8-1z" fill="#D29D6A"/>
<path transform="translate(968,496)" d="m0 0 1 4v8l1 6v12l-3-3-2-7v-17z" fill="#D39D6B"/>
<path transform="translate(928,449)" d="m0 0 4 1 3 5v2h2l-1 6-5 3-6-1v-1h6l-1-6h-2l-1-7z" fill="#A88E54"/>
<path transform="translate(1019,512)" d="m0 0 11 7 3 3 1 5-3-1-3-3-3-2-5-1v6l-3 2 1-11z" fill="#33251D"/>
<path transform="translate(956,385)" d="m0 0 3 1v14l3 1-5 3-6 4-3 3 1-5 3-3 3-7z" fill="#975F32"/>
<path transform="translate(1017,531)" d="m0 0 4 5 7 9 2 4 5 2 2 1 1-3 5 11-1 2-13-12-9-11-3-5z" fill="#8A4D25"/>
<path transform="translate(1053,365)" d="m0 0 10 1 8 4-2 3h-11l-5-5z" fill="#8F5126"/>
<path transform="translate(1048,552)" d="m0 0h2l4 4 5 13v3l-4-1-4-6-2-2z" fill="#2C231E"/>
<path transform="translate(902,497)" d="m0 0 3 2v3h2v8l-9-1-2-1 2-6z" fill="#899054"/>
<path transform="translate(1123,387)" d="m0 0h2l-2 4-10 8-4-2h2l-1-9h8z" fill="#884B24"/>
<path transform="translate(1011,476)" d="m0 0 3 1v6l-10 7-6 1-1-2 8-6z" fill="#33251D"/>
<path transform="translate(943,736)" d="m0 0 5 2 1 5-5 1-10 1 1-4 5-4z" fill="#fff"/>
<path transform="translate(1182,538)" d="m0 0h2l1 9v34l-1 1-1 27h-1l-1-30 2-2v-24z" fill="#695330"/>
<path transform="translate(899,751)" d="m0 0 5 2 5 3 1 2 3 1 3 4h-2l-1 3-5-2-1-2-3-2-5-5z" fill="#ABAA68"/>
<path transform="translate(793,660)" d="m0 0 5 2 4 2v8l3 1-3 1-6-3-3-4z" fill="#AAAB68"/>
<path transform="translate(992,561)" d="m0 0 4 2 5 6 2 2 1 13 1 5-2 1-1-9h-2v-4l-4 1v-6l1-5z" fill="#864A24"/>
<path transform="translate(1016,533)" d="m0 0 4 4 9 12 8 8 5 4v2l-6-2-8-8-9-13-3-5z" fill="#E9A554"/>
<path transform="translate(1155,482)" d="m0 0h5v2l5 1 8 4v11l-3-1-1-8-5-2-9-4z" fill="#35261E"/>
<path transform="translate(1157,409)" d="m0 0 4 2 12 14 9 13 8 14-1 3-11-19-9-12-9-10-3-3z" fill="#584327"/>
<path transform="translate(958,410)" d="m0 0h5l-1 3-11 6-8 9-5 2 1-3 8-6 1-4v-3l7-2z" fill="#E8A755"/>
<path transform="translate(1262,643)" d="m0 0h2l-2 4-5 9-5 1-3 1 2-6 2-5z" fill="#A9AA68"/>
<path transform="translate(1185,471)" d="m0 0 5 2 4 6-1 4-1 2-13 2v-3l8 1z" fill="#864A24"/>
<path transform="translate(1019,438)" d="m0 0 8 5v6h-5l-3-2-2 6-3 1 2-5z" fill="#30241E"/>
<path transform="translate(1e3 772)" d="m0 0 7 1 5 2v5l-1-2h-3v-2h-8l-10 4-4 2-4-1 7-4h2v-2z" fill="#A0A568"/>
<path transform="translate(1167,460)" d="m0 0 3 4 4 12v10l-1 1h-6l-5-3 2-1 7 2-3-18z" fill="#E3A555"/>
<path transform="translate(1052,405)" d="m0 0h2l4 17v10l-5-5-2-3h3v-8l-2-5-5-1v-2h5z" fill="#5C351C"/>
<path transform="translate(809,567)" d="m0 0h2l-1 6-5 5-4 2-1-3v-7z" fill="#AAAB68"/>
<path transform="translate(1116,541)" d="m0 0h4l8 17-5-1-7-9z" fill="#81562D"/>
<path transform="translate(923,483)" d="m0 0 2 3-1 5-5 1v2h5l-1 5h-7v-7h2l-1-4h2l2-4z" fill="#A4A766"/>
<path transform="translate(1054,526)" d="m0 0 2 2 3 5 5 3-3 2h-2l1 7-4-2-5-10 1-2 3 1-3-4h2z" fill="#8E5026"/>
<path transform="translate(886,675)" d="m0 0 8 1 5 5-2 5-4-1-1-4-6-2z" fill="#fff"/>
<path transform="translate(1049,567)" d="m0 0h2l8 16 2 5v4l-4-2-8-21z" fill="#864A24"/>
<path transform="translate(1107,729)" d="m0 0 6 1 1 6-3 3-6-1-1-6z" fill="#fff"/>
<path transform="translate(1083,617)" d="m0 0 2 1v10l-5-1v-2h-2v6l-4-2v-5l3-3 6-1z" fill="#352B21"/>
<path transform="translate(1063,515)" d="m0 0 2 1 4 11 3 1-1 3h-2l-1 9h-4l-4-4 6 2z" fill="#C29A5D"/>
<path transform="translate(966,789)" d="m0 0 6 2-5 6-2 1h-7l2-6 1-2z" fill="#AAAB68"/>
<path transform="translate(947,639)" d="m0 0 8 6 2 3v4l-5-1-8-6 2-5z" fill="#28BCE2"/>
<path transform="translate(889,575)" d="m0 0 4 1 2 3 7 3 1 6-2 1-2 3v-4l-4 1-3-1 1-4 7 1v-2l-5-1-6-2z" fill="#D5D5B4"/>
<path transform="translate(991,437)" d="m0 0 1 3-2 4-1 6-2 3h-2l-1 4h-9v-4l5-3-1 5 3-1v-2l4-4 4-10z" fill="#F0A74E"/>
<path transform="translate(1136,536)" d="m0 0 2 4 8 26v2l-4-2-3-5v-9l-4-13z" fill="#615331"/>
<path transform="translate(1e3 447)" d="m0 0 3 1 5 5-1 6-8 3 2-5v-2l-4 2z" fill="#57321A"/>
<path transform="translate(1032,573)" d="m0 0 5 5 7 9 2 5v3h-2l-9-13-3-6z" fill="#8C4F26"/>
<path transform="translate(995,531)" d="m0 0h1l2 6 8 10 10 11 2-3v6l-4-2-13-14-3-1-3-5v-3l-2-1z" fill="#915328"/>
<path transform="translate(1071,479)" d="m0 0h1l1 9-2 3-6 2v2l-6 3-3-5v-2h10l4-9z" fill="#864A24"/>
<path transform="translate(1079,459)" d="m0 0 4 5 5 8v5l-6 6h-5l6-6-1-8-3-5z" fill="#8A4D25"/>
<path transform="translate(807,678)" d="m0 0h8l5 5v2h-9l-6-3v-3z" fill="#ABAB68"/>
<path transform="translate(1054,669)" d="m0 0 5 1-2 3h-2l-4 8-3 1 4-8h-3l-1 4h-2v-7l1-1z" fill="#4AC5E4"/>
<path transform="translate(894,514)" d="m0 0 3 1v3l4 1 1 5-1 2-7 1z" fill="#8A7A43"/>
<path transform="translate(948,392)" d="m0 0 1 4-3 9-7 9-9 10h-2l2-4 8-8 5-8z" fill="#8F6435"/>
<path transform="translate(1029,554)" d="m0 0 4 4v13l-1-3h-2l-1 2-2-1-5-10 1-2 5 8z" fill="#8E5026"/>
<path transform="translate(1157,543)" d="m0 0 3 1 1 4 2 2 1 7h-2v3l-3 1-2-9z" fill="#895F35"/>
<path transform="translate(979,381)" d="m0 0h1v14l-4 2h-3v-7h2l2-6z" fill="#E8A752"/>
<path transform="translate(1082,379)" d="m0 0h5l1 3 3-1 2 5v3l-10-3-1-1z" fill="#8E5026"/>
<path transform="translate(1196,610)" d="m0 0 1 3h2l1-2 1 8-1 7h-4l-1-1v-8z" fill="#594B30"/>
<path transform="translate(1e3 785)" d="m0 0 3 1-14 9h-6l-2-4 1-1 12-1z" fill="#9EA466"/>
<path transform="translate(1125,656)" d="m0 0 1 4-6 10-4 5-4 3h-10v-2l10-2 5-5 5-6z" fill="#177A82"/>
<path transform="translate(1050,605)" d="m0 0 7 1v2h4l2 7-1 4-5-5-3-4v-2h-3z" fill="#2D231E"/>
<path transform="translate(1134,394)" d="m0 0h2l2 3v7l-5 1-4-3 1-4z" fill="#D19D6A"/>
<path transform="translate(907,711)" d="m0 0h6l2 3-1 5-6 1-2-2v-6z" fill="#fff"/>
<path transform="translate(917,589)" d="m0 0h2l-2 4-6 4h-3v5h-2l1-5-3 1h-8l2-4 6 1 4-1 2-2 2 1z" fill="#fff"/>
<path transform="translate(1053,489)" d="m0 0 2 1v3h2l4 7v2l9-3-3 3-4 1 2 5v5l-2-1-7-15v-2h-2z" fill="#2F241E"/>
<path transform="translate(947,679)" d="m0 0 5 2 1 1v5l-5 2-3-1-1-6z" fill="#fff"/>
<path transform="translate(890,579)" d="m0 0 10 4v2l-7-1-1 4h3v2l3 1-2 4h-3l-2-5z" fill="#9DA262"/>
<path transform="translate(853,569)" d="m0 0 7 1v3h-6v3l-7-1-1 2-3-3 4-4h3v2h2z" fill="#CC1E28"/>
<path transform="translate(895,511)" d="m0 0 6 1 2 4 3 3v5h-3l-3-5-3-1-1-3-2-1z" fill="#B6B987"/>
<path transform="translate(983,740)" d="m0 0h8l3 7 5 1 16 1v1l-12 2v-2h-11l-4-2 2-1 1-5h-8z" fill="#8F5126"/>
<path transform="translate(1163,652)" d="m0 0 4 2v6l-1 1h-7l-1-6 1-2z" fill="#fff"/>
<path transform="translate(904,597)" d="m0 0h3l-1 5 12-1 1 2-4 1h-10l-8-4-1-2z" fill="#999156"/>
<path transform="translate(983,570)" d="m0 0 4 2 6 7-1 2-9-4-4-4v-2z" fill="#91592C"/>
<path transform="translate(1081,514)" d="m0 0 3 1-4 9-3 2h-5l-2-5 7-2 3-3z" fill="#CC9C65"/>
<path transform="translate(878,500)" d="m0 0 4 2 5 7-1 3v-2h-9l-6 3v-4l6-3h4l-1-3-4-2z" fill="#AAAA68"/>
<path transform="translate(899,438)" d="m0 0 5 1-1 2-4-1 1 7-1 4h2v4h-8l-1-2h3l1-5 1-2v-6z" fill="#888B4F"/>
<path transform="translate(1099,408)" d="m0 0 5 2 1 3 4 2 4 6 1 6-2 4-2 1h-7v-1l7-2 1-4-2-5-10-11z" fill="#D3A254"/>
<path transform="translate(1198,593)" d="m0 0h1l2 11 2 1v8l-3 3-1-3h-2z" fill="#312821"/>
<path transform="translate(944,676)" d="m0 0 4 1-3 5v7h2v3l-5-2-2-3v-6z" fill="#189DB4"/>
<path transform="translate(1149,613)" d="m0 0 3 1 2 4 8 6 1 3-6-2-10-7 2-2z" fill="#864A24"/>
<path transform="translate(1101,498)" d="m0 0 8 1 1 2-3 2 2 5 2 4-10-6z" fill="#512F19"/>
<path transform="translate(935,473)" d="m0 0h7l2 6h-2v2h-8z" fill="#AAAD73"/>
<path transform="translate(870,538)" d="m0 0h7l1 3-9 4-2 5h-1l-1-10z" fill="#AAAB68"/>
<path transform="translate(992,478)" d="m0 0 2 2-4 5-8 6h-4l-3-4 3-1 6-1z" fill="#3D2A1E"/>
<path transform="translate(1100,502)" d="m0 0 1 4 4 1 13 12 1 2-4-2-5-5-7-3h-3l-2-3z" fill="#874A24"/>
<path transform="translate(974,488)" d="m0 0 4 1-4 4-2 5-1 15h-1v-5h-2v-8l3-8z" fill="#814823"/>
<path transform="translate(1088,483)" d="m0 0h2v11h-2l-1 3-5-6 1-4z" fill="#864A24"/>
<path transform="translate(1139,402)" d="m0 0 8 4 1 3-8 2-6-5 2-2h3z" fill="#864A24"/>
<path transform="translate(1054,702)" d="m0 0 3 1v2l-3 3-3 12-5 1h-9l-5-1v-1l18-1 2-11z" fill="#5F371F"/>
<path transform="translate(945,601)" d="m0 0 5 1 1 4-5 5h-3v-9z" fill="#F4C442"/>
<path transform="translate(893,568)" d="m0 0h2l2 4h3v4l-4 3-3-1v-2l-3-1 1-6z" fill="#9FA568"/>
<path transform="translate(1096,481)" d="m0 0 8 3 5 5v2l-4-2-5-4-3-1 3 9-1 3-7-12z" fill="#4C2D19"/>
<path transform="translate(1059,740)" d="m0 0h6l2 2v3h-2v-3l-5 1-2 9-6-1 2-4z" fill="#8F4926"/>
<path transform="translate(848,709)" d="m0 0 7 5 2 5-3 1-9-6-2-1v-2z" fill="#A8AA68"/>
<path transform="translate(886,551)" d="m0 0 4 1v3l-5 3-4 5-2-2 1-5 4-4z" fill="#fff"/>
<path transform="translate(879,547)" d="m0 0 7 1-4 3-5 5-3 2-2-5z" fill="#fff"/>
<path transform="translate(1170,623)" d="m0 0 5 1-2 4-5 3-11 1-1-2 9-1 3-5z" fill="#352C22"/>
<path transform="translate(989,537)" d="m0 0 4 1 2 6 13 16h-3l-8-9-6-8-2-3z" fill="#4F301A"/>
<path transform="translate(868,534)" d="m0 0h10l3 2v4l-4-1h-10z" fill="#fff"/>
<path transform="translate(1020,577)" d="m0 0 3 1 7 9 2 8-3-1-6-9-3-6z" fill="#8C4F26"/>
<path transform="translate(975,458)" d="m0 0h7l-3 10-3 7-1-3 4-13-5 5-5 7-1-2z" fill="#925D30"/>
<path transform="translate(1056,443)" d="m0 0 1 3-5 8-8 6-2-4 5-2 4-4v-6z" fill="#57331B"/>
<path transform="translate(1085,402)" d="m0 0 6 1 4 3-6 6v-2h-3l-2-3z" fill="#4E2E19"/>
<path transform="translate(1035,768)" d="m0 0 2 3 16 2 5 2v1h-8l-11-1-4-2z" fill="#ADAB69"/>
<path transform="translate(1035,604)" d="m0 0 5 3 2 4v6l-7-6-3-4h2z" fill="#87562B"/>
<path transform="translate(903,578)" d="m0 0h3l1 8 3-1-2 4-5 3-3 1 1-5 2-1z" fill="#fff"/>
<path transform="translate(1134,477)" d="m0 0 4 2 8 6 7 2v2l-9-1-6-4v-2l-4-2z" fill="#E1A358"/>
<path transform="translate(1167,463)" d="m0 0 2 4 2 10v8l-4-1h3l-5-14v-5z" fill="#905227"/>
<path transform="translate(1139,609)" d="m0 0 10 2 1 5v1h-6v2h-2l-1-7z" fill="#8E5026"/>
<path transform="translate(1112,727)" d="m0 0 4 1 2 4-1 6-2 3h-7l3-1 2-4 1-8z" fill="#1599AE"/>
<path transform="translate(1164,635)" d="m0 0 7 2 1 4-4 2h-5l-1-5z" fill="#E19453"/>
<path transform="translate(1132,600)" d="m0 0 5 1-2 1 8 8h-3l2 4-7-6-4-1-3-1v-2h6v-3z" fill="#864A24"/>
<path transform="translate(1e3 544)" d="m0 0 7 6 9 10 4 7-4-2-8-10-4-4-4-5z" fill="#E0A357"/>
<path transform="translate(1037,531)" d="m0 0 3 4 7 11 2 4-2 2-2-4-8-4-1-2 4 1-1-5-2-4z" fill="#8C4F26"/>
<path transform="translate(1035,525)" d="m0 0 4 4 6 9 2 5 4 6h-3l-9-14-4-8z" fill="#E9A554"/>
<path transform="translate(871,525)" d="m0 0h8l4 3v2h-14z" fill="#fff"/>
<path transform="translate(866,497)" d="m0 0 6 1 4 3-5 3-2 2-4-4z" fill="#F2F2E9"/>
<path transform="translate(1107,476)" d="m0 0 4 5-1 3h-4l-1 2-3-3 1-5z" fill="#8F5227"/>
<path transform="translate(977,416)" d="m0 0h3v3l-9 5-4-1v-3z" fill="#4E2E19"/>
<path transform="translate(988,396)" d="m0 0 8 1 15 6 1 2-4 1-13-6-7-3z" fill="#8C4F26"/>
<path transform="translate(1052,355)" d="m0 0m-4 1 6 1 13 5v2l4 2 1 2-5-2-9-4-4-1v-2h-3v-2z" fill="#894D25"/>
<path transform="translate(1144,752)" d="m0 0 1 3 2 1-3 2-1 3-4 3-5-1 5-8h5z" fill="#ABAA68"/>
<path transform="translate(1048,532)" d="m0 0 2 2 3 9v5l-5-5-6-7 1-2 6 4z" fill="#8B4E25"/>
<path transform="translate(1063,699)" d="m0 0 6 1 4 4-1 2-4-4-4-1-4 4v3h6l-1 3-6-1-2-3v-4l-2-1 6-2z" fill="#AB7644"/>
<path transform="translate(879,593)" d="m0 0 4 2 2 7-7-3h-8l-2-3h11z" fill="#48968A"/>
<path transform="translate(1140,520)" d="m0 0 8 5 2 4-1 7h-2l-3-9-4-4z" fill="#33251D"/>
<path transform="translate(1180,486)" d="m0 0 11 2 10 4 1 2-8-1-10-4z" fill="#D8A160"/>
<path transform="translate(1077,486)" d="m0 0h3v5l-5 7-6 5-6 1 4-3 7-7 2-3z" fill="#3F2C1E"/>
<path transform="translate(1011,469)" d="m0 0 1 4-2 5-8 9-3-1 10-13z" fill="#D8A650"/>
<path transform="translate(992,392)" d="m0 0 9 1 10 3h8v3l-11-1-16-4z" fill="#976536"/>
<path transform="translate(956,439)" d="m0 0h5l-3 3-9 4-5-2 1-2z" fill="#885B2E"/>
<path transform="translate(904,715)" d="m0 0 2 4 1 1h5l4-3 1 4-4 3-7-1-3-3z" fill="#1BA4BF"/>
<path transform="translate(1094,571)" d="m0 0 6 2 6 5-2 4-4-2-6-7z" fill="#864A24"/>
<path transform="translate(927,483)" d="m0 0h5v6l2 1v2h-7z" fill="#9FA568"/>
<path transform="translate(910,400)" d="m0 0h3l1 5v11h-2l-2-9-1-5z" fill="#F5C442"/>
<path transform="translate(926,493)" d="m0 0h11l-9 9-2-1z" fill="#98854D"/>
<path transform="translate(1131,606)" d="m0 0 4 1 7 7-1 4-5-5-6-4-1-2z" fill="#4E2E19"/>
<path transform="translate(916,501)" d="m0 0 10 1-6 7-4-4-1 3-1-2z" fill="#959155"/>
<path transform="translate(1177,456)" d="m0 0h5l4 6-1 4h-4z" fill="#864A24"/>
<path transform="translate(1043,748)" d="m0 0h2v2h7l3 3-6 1-14-3v-1l8-1z" fill="#8A5128"/>
<path transform="translate(906,493)" d="m0 0h3l-1 2-2 2 5 2-2 1 2 10h-2l-2-10-2 2-2-1-1-5z" fill="#A2A667"/>
<path transform="translate(959,388)" d="m0 0h1v11l3-1 3-6h1v8h-3l-5 5-4 1 4-6z" fill="#C6A366"/>
<path transform="translate(904,572)" d="m0 0 2 1 3 7 3 2v2l-4 1-1 2-1-1v-8l-4 1z" fill="#959459"/>
<path transform="translate(891,562)" d="m0 0 10 1v2l-8 1-3 3 1-4h-8l-1-2z" fill="#fff"/>
<path transform="translate(949,559)" d="m0 0h2l1 6-2 6-4-1v-5l1-2h2z" fill="#fff"/>
<path transform="translate(1006,530)" d="m0 0 8 1 1 4h2l-1 4-4-1z" fill="#31251E"/>
<path transform="translate(874,518)" d="m0 0h7l3 2v3l-13-1z" fill="#fff"/>
<path transform="translate(1143,411)" d="m0 0h7l3 7-1 3-9-8z" fill="#D39D6B"/>
<path transform="translate(968,400)" d="m0 0h2l-1 4-15 10-2-1 11-9z" fill="#8E5026"/>
<path transform="translate(1073,652)" d="m0 0h2v2l6-1v2l-6 3h-6v-4z" fill="#12685A"/>
<path transform="translate(1e3 635)" d="m0 0 4 2 1 4 2 1v-3h2l-1 4-3 1-14-5v-1h6l4 1z" fill="#3F604A"/>
<path transform="translate(981,630)" d="m0 0 4 3v2l3 1-13 2 3-3-2-4z" fill="#3F8577"/>
<path transform="translate(1068,625)" d="m0 0 8 4 3-2 2 7 2 3-4-2-5-3-3-3-1 5h-1z" fill="#815A30"/>
<path transform="translate(1045,389)" d="m0 0 4 1 5 5-1 2-14-4v-1h6z" fill="#432B1B"/>
<path transform="translate(1129,383)" d="m0 0h13l-4 7h-3l-1-3z" fill="#856137"/>
<path transform="translate(1040,468)" d="m0 0h4l4 9-1 4-6-8z" fill="#30241E"/>
<path transform="translate(977,565)" d="m0 0 6 1 4 4-1 2-3-1-5 1-2-6z" fill="#C19B65"/>
<path transform="translate(1010,558)" d="m0 0 5 4 4 5v3l2 1h-2l-1 2-2-5-7-5 2-1z" fill="#5B351B"/>
<path transform="translate(1149,529)" d="m0 0h1l4 22-4-2-2-13z" fill="#605335"/>
<path transform="translate(1034,750)" d="m0 0 15 3v1h-19l1-3z" fill="#774221"/>
<path transform="translate(964,638)" d="m0 0 9 3-2 4-4 3h-2l1-6z" fill="#2B6D6E"/>
<path transform="translate(849,574)" d="m0 0 5 2-1 4-6 2-2-3 1-3z" fill="#EEB74B"/>
<path transform="translate(916,509)" d="m0 0 3 1-4 8h-3l-2-4v-3h6z" fill="#9F955A"/>
<path transform="translate(1075,788)" d="m0 0 5 1 8 2v2h-11l-3-2z" fill="#808A4E"/>
<path transform="translate(992,561)" d="m0 0 4 2 3 3v8l2 2v5l-1-4-4 1v-6l1-5z" fill="#8C4F26"/>
<path transform="translate(908,535)" d="m0 0 2 3 1 8-3-4-5 1v-3l-2-1 1-1h6z" fill="#A6A768"/>
<path transform="translate(1210,505)" d="m0 0h1l2 9v9h-2l-2-10z" fill="#444233"/>
<path transform="translate(1061,479)" d="m0 0 1 3 1 4-4 3h-4l1-4z" fill="#2E241E"/>
<path transform="translate(1117,580)" d="m0 0h5l10 8-1 2-4-2-10-7z" fill="#7A532D"/>
<path transform="translate(1153,492)" d="m0 0h1l4 17 2 6-3-3-4-9z" fill="#CCA462"/>
<path transform="translate(923,483)" d="m0 0 2 3-1 5-7 3v-6h2l2-4z" fill="#A0A364"/>
<path transform="translate(1080,459)" d="m0 0 5 4 2 3h7l-1 2-4 1-1 2h-2l-6-10z" fill="#E9A555"/>
<path transform="translate(944,416)" d="m0 0 5 1-2 5-3 2-4-1z" fill="#7A4522"/>
<path transform="translate(906,448)" d="m0 0h3l1 2 3 1 1 4h-8z" fill="#8E713E"/>
<path transform="translate(1105,438)" d="m0 0 2 2-1 5-4 3-10 1 4-2 5-2z" fill="#8C4E25"/>
<path transform="translate(1082,370)" d="m0 0 4 2 6 7 3 6v4h-2l-4-10-7-8z" fill="#CFA972"/>
<path transform="translate(1107,372)" d="m0 0 5 1 10 7h-3l-11-4v-2l-2-1z" fill="#694626"/>
<path transform="translate(1009,361)" d="m0 0h8l-2 2-9 2-7 6-1-2 4-5z" fill="#916838"/>
<path transform="translate(978,591)" d="m0 0 9 3 2 2-1 1-9-1-4-2 3-1z" fill="#E2A25B"/>
<path transform="translate(889,575)" d="m0 0 4 1 2 3 7 3v2l-9-3-4-1z" fill="#CECEA8"/>
<path transform="translate(876,502)" d="m0 0 5 1v3l-10 3 2-5z" fill="#fff"/>
<path transform="translate(1e3 490)" d="m0 0h3l1 7-1 3v3l-6 3 2-7 3-8z" fill="#905227"/>
<path transform="translate(1197,469)" d="m0 0 3 4 6 11 4 5h-3l-6-9-4-7z" fill="#675432"/>
<path transform="translate(1067,366)" d="m0 0 5 2 7 9 1 7-2-2-4-8-6-5z" fill="#C3A665"/>
<path transform="translate(1168,654)" d="m0 0 2 2-1 5-3 3-6-1-3-2 1-3 1 2h7z" fill="#EAA94F"/>
<path transform="translate(1055,580)" d="m0 0 5 5 1 7-4-2-2-5z" fill="#8C4E25"/>
<path transform="translate(842,580)" d="m0 0 4 1-1 5h-6v-5z" fill="#F2B947"/>
<path transform="translate(1052,452)" d="m0 0 2 1-2 5-7 4h-3v-2l6-4 4-2z" fill="#E1A454"/>
<path transform="translate(935,421)" d="m0 0h4l-1 5-1 2h-5l1-6z" fill="#F4A94B"/>
<path transform="translate(1157,409)" d="m0 0 4 2 12 14h-3l-11-12z" fill="#5A472A"/>
<path transform="translate(843,724)" d="m0 0h7l-2 5-2 3-4-6z" fill="#ABAB68"/>
<path transform="translate(1042,609)" d="m0 0 2 1 2 10 2 5-1 3-5-9z" fill="#332A21"/>
<path transform="translate(935,484)" d="m0 0h11l-2 4-2 1v-3h-3v2h-4z" fill="#8B6E3B"/>
<path transform="translate(1093,451)" d="m0 0 4 5 1 5-4 5-3-1h2l1-8z" fill="#905227"/>
<path transform="translate(1052,405)" d="m0 0h2l2 7v4h-2l-2-5-5-1v-2h5z" fill="#714020"/>
<path transform="translate(1054,354)" d="m0 0 9 1v3l-7 1-4-3z" fill="#875A2F"/>
<path transform="translate(965,599)" d="m0 0 10 1 5 1-2 3-10-2z" fill="#926737"/>
<path transform="translate(1116,594)" d="m0 0h3l9 9-1 3-10-9-2-2z" fill="#4E2E19"/>
<path transform="translate(1121,549)" d="m0 0 3 1 4 8-5-1-2-2-1-5z" fill="#5E492B"/>
<path transform="translate(1144,541)" d="m0 0 4 2v6l2 2-1 6-2-4-3-9z" fill="#906636"/>
<path transform="translate(902,522)" d="m0 0 3 2 1-2 2 1v2h-2l-2 4-5 1-2-2 5-2-1-2z" fill="#A1A668"/>
<path transform="translate(894,514)" d="m0 0 3 1v9l2 2-5 1z" fill="#848D50"/>
<path transform="translate(974,478)" d="m0 0h1v7l-8-1 1-4z" fill="#37291E"/>
<path transform="translate(1112,625)" d="m0 0 4 2 10 10-3 1-5-5z" fill="#4E2E19"/>
<path transform="translate(938,621)" d="m0 0 4 1h-2l1 7 1 1 7 1v1h-8l-4-4v-6z" fill="#E3A952"/>
<path transform="translate(1136,536)" d="m0 0 2 4 3 9v7l-2-4-4-13z" fill="#5E4729"/>
<path transform="translate(929,451)" d="m0 0 4 2 2 4h2l-1 3-5-2-2-3z" fill="#3AC1E4"/>
<path transform="translate(1122,707)" d="m0 0h7l3 1v3h-7l-3-2z" fill="#fff"/>
<path transform="translate(1066,661)" d="m0 0 3 1-2 1v4l-8 2 2-5h2v-2z" fill="#A2A667"/>
<path transform="translate(1177,649)" d="m0 0 4 1 1 3-1 2h-5l-1-4z" fill="#F4B946"/>
<path transform="translate(897,588)" d="m0 0h2l1 4h3v4l-5-1-3 3-1-3 3-2v-2l-2-2z" fill="#A4A868"/>
<path transform="translate(1156,566)" d="m0 0h2v11l-3-1-1-7z" fill="#5E5A3A"/>
<path transform="translate(988,557)" d="m0 0 2 2 1 12-4-2-1-8z" fill="#8D5329"/>
<path transform="translate(1119,520)" d="m0 0 8 6-1 6-4-3-1-5z" fill="#844F27"/>
<path transform="translate(1074,491)" d="m0 0h2l-2 4-8 6-5 1v-2l10-5z" fill="#BA9F60"/>
<path transform="translate(1e3 452)" d="m0 0 1 2-3 6-5 7-1-3 3-6h2v-3h2z" fill="#E5AA53"/>
<path transform="translate(1011,454)" d="m0 0h1v8l-2 6h-1l-1-6-3-2 5-1z" fill="#884B24"/>
<path transform="translate(1107,725)" d="m0 0 7 1v6l-1-2h-8v-3z" fill="#28BCE2"/>
<path transform="translate(903,710)" d="m0 0 3 2 2 7 4 2h-5l-3-5-2 2v-6z" fill="#28BCE2"/>
<path transform="translate(1262,643)" d="m0 0h2l-2 4-9 3v-3z" fill="#9DA265"/>
<path transform="translate(1e3 447)" d="m0 0 3 1 2 4-3 1-4 4-1-2z" fill="#6F4020"/>
<path transform="translate(912,438)" d="m0 0 3 1-3 12-2-1v-5l-1-4z" fill="#AEAA69"/>
<path transform="translate(948,392)" d="m0 0 1 4-3 9-3 3 1-7z" fill="#946738"/>
<path transform="translate(1104,497)" d="m0 0h14l-1 3h-8l-5-2z" fill="#EAA653"/>
<path transform="translate(1167,460)" d="m0 0 3 4 3 10h-2l-1 3-3-14z" fill="#DFA15E"/>
<path transform="translate(1105,435)" d="m0 0 3 2v8l-4 5-3-1 5-5z" fill="#D5A15C"/>
<path transform="translate(901,440)" d="m0 0h5v5l5 2v3h-2v-2l-4-1-2-4-2-1z" fill="#fff"/>
<path transform="translate(885,424)" d="m0 0 2 1 3 4-1 2 2 2-4 2-3-7z" fill="#9FA568"/>
<path transform="translate(991,419)" d="m0 0 5 5-1 5-5 6v-3l3-4z" fill="#D39D6B"/>
<path transform="translate(1075,375)" d="m0 0 3 4 1 5-4-1-2-4v-3z" fill="#8F5126"/>
<path transform="translate(1129,779)" d="m0 0 7 2 1 2-6 1-7-3v-1z" fill="#9FA466"/>
<path transform="translate(993,750)" d="m0 0h10l1 2 5 1v1l-11-1-5-2z" fill="#764825"/>
<path transform="translate(983,740)" d="m0 0h8l2 3v6h-5l2-2 1-5h-8z" fill="#854B24"/>
<path transform="translate(814,638)" d="m0 0 2 2v9l-2 2-2-5z" fill="#A0A568"/>
<path transform="translate(1063,515)" d="m0 0 2 1 3 7v5l-3 1z" fill="#E9A555"/>
<path transform="translate(1135,502)" d="m0 0 2 3 6 11-1 2-6-8z" fill="#CF9F61"/>
<path transform="translate(1118,488)" d="m0 0 10 3 2 4-10-3z" fill="#35261E"/>
<path transform="translate(924,479)" d="m0 0h2l-2 4-3 2-1 5-1-2-3-1 5-5z" fill="#8D7742"/>
<path transform="translate(1088,469)" d="m0 0 2 3-1 7-3 4-3-1 4-5v-6z" fill="#BD9F5E"/>
<path transform="translate(991,447)" d="m0 0 2 3v2h-2l-1 4-4 4-1-3 5-6z" fill="#E9A555"/>
<path transform="translate(1112,430)" d="m0 0 2 1-3 3-2 4-4-3 1-3z" fill="#432A1A"/>
<path transform="translate(1034,382)" d="m0 0 6 2 6 4-2 2-4-2v-2l-8-2z" fill="#502F19"/>
<path transform="translate(1055,363)" d="m0 0h8l4 2 1 3-11-3z" fill="#E1A956"/>
<path transform="translate(1059,740)" d="m0 0h6l2 2v3h-2v-3l-5 1-2 3-3 1 2-4z" fill="#8C4F25"/>
<path transform="translate(1210,702)" d="m0 0v3l-4 4-2 3-1-7z" fill="#A7A464"/>
<path transform="translate(1246,631)" d="m0 0h2l1 4v7l-5-4z" fill="#ABAB68"/>
<path transform="translate(934,614)" d="m0 0h10l-4 2-3 3-3 1-1-5z" fill="#E6A055"/>
<path transform="translate(1116,484)" d="m0 0 8 2v2l3 1-5 1-5-2z" fill="#8F5328"/>
<path transform="translate(1115,402)" d="m0 0h3l-1 5-2 4-9 1 8-4z" fill="#D19C5E"/>
<path transform="translate(1016,373)" d="m0 0 3 3-3 2h-11l1-2 10-1z" fill="#6C3E1F"/>
<path transform="translate(1102,661)" d="m0 0 3 1 1 6-4 2z" fill="#fff"/>
<path transform="translate(1173,642)" d="m0 0h2l2 4-1 1-7-1v-3z" fill="#EFB84B"/>
<path transform="translate(846,582)" d="m0 0h2l-1 5-3 2-5-1-1-2 7-1z" fill="#CE1624"/>
<path transform="translate(860,571)" d="m0 0 2 4v1l-7 1-1-4 4-1 2 1z" fill="#E9AB51"/>
<path transform="translate(1082,530)" d="m0 0 3 3 2 6v4h-2l-3-10z" fill="#364F49"/>
<path transform="translate(1097,517)" d="m0 0 4 2 10 9h-3l-10-9z" fill="#864A24"/>
<path transform="translate(1116,506)" d="m0 0 4 4 6 7-1 2-7-6-2-4z" fill="#D7A056"/>
<path transform="translate(1194,494)" d="m0 0h7l4 3-4 1-6-2z" fill="#2E241E"/>
<path transform="translate(945,464)" d="m0 0 4 2-1 3-11-1 4-2h4z" fill="#D7D2B4"/>
<path transform="translate(949,394)" d="m0 0 2 3 2 6-4 1-2-5z" fill="#B6AB6E"/>
<path transform="translate(1180,634)" d="m0 0 4 2-3 3-2 3v-2h-2v-2l-2-1z" fill="#EDA84E"/>
<path transform="translate(898,450)" d="m0 0 3 1v4h-8l-1-2 6-1z" fill="#969D5F"/>
<path transform="translate(896,435)" d="m0 0h3v3l-11 3 1-3z" fill="#fff"/>
<path transform="translate(958,410)" d="m0 0h5l-1 3-7 3-1-3z" fill="#DDA558"/>
<path transform="translate(1060,792)" d="m0 0h4l1 3-5 2-3-1 1-3z" fill="#979D5F"/>
<path transform="translate(1071,661)" d="m0 0 1 3-2 3h-2l-1 2-4-2 3-1v-3h5z" fill="#4597A5"/>
<path transform="translate(787,649)" d="m0 0 6 1-2 4-3 1-2-4z" fill="#ABAB68"/>
<path transform="translate(892,589)" d="m0 0 5 1v4l-4 1z" fill="#899154"/>
<path transform="translate(1153,477)" d="m0 0 4 1 5 3v3h-2v-2l-4-1-3-2z" fill="#9A5D31"/>
<path transform="translate(1112,421)" d="m0 0 2 4-2 6-2 1h-7v-1l7-2z" fill="#B49F61"/>
</svg>
